<svg xmlns="http://www.w3.org/2000/svg" xmlns:xlink="http://www.w3.org/1999/xlink" viewBox="0 0 371.84 210.87"><defs><style>.cls-1{fill:none;}.cls-2{isolation:isolate;}.cls-3{fill:url(#linear-gradient);}.cls-4{fill:url(#radial-gradient);}.cls-10,.cls-5,.cls-6,.cls-7{mix-blend-mode:screen;}.cls-5{fill:url(#linear-gradient-2);}.cls-6{fill:url(#linear-gradient-3);}.cls-7{fill:url(#linear-gradient-4);}.cls-8{clip-path:url(#clip-path);}.cls-9{mix-blend-mode:overlay;}.cls-10{fill:url(#linear-gradient-5);}.cls-11{fill:#c6c6c6;}.cls-12{fill:url(#linear-gradient-6);}.cls-13{fill:#efe5d0;}.cls-14{fill:url(#linear-gradient-7);}.cls-15{fill:#f2d473;}</style><linearGradient id="linear-gradient" x1="22.15" y1="106.07" x2="371.84" y2="106.07" gradientUnits="userSpaceOnUse"><stop offset="0" stop-color="#6d6d6d"/><stop offset="0.24" stop-color="#b4b4b4"/><stop offset="0.6" stop-color="#fff"/><stop offset="1" stop-color="#3b3b3b"/></linearGradient><radialGradient id="radial-gradient" cx="67.52" cy="-30.06" r="156.51" gradientTransform="translate(59.38 154.59) scale(1.97 1.82)" gradientUnits="userSpaceOnUse"><stop offset="0" stop-color="#3d3d3d"/><stop offset="0.71"/></radialGradient><linearGradient id="linear-gradient-2" x1="204.18" y1="138.22" x2="435.25" y2="138.22" gradientTransform="matrix(-1, 0, 0, 1, 534.84, 0)" gradientUnits="userSpaceOnUse"><stop offset="0.07"/><stop offset="0.73" stop-color="#333"/><stop offset="1"/></linearGradient><linearGradient id="linear-gradient-3" x1="183.35" y1="129.24" x2="429.95" y2="129.24" gradientTransform="matrix(-1, 0, 0, 1, 534.84, 0)" gradientUnits="userSpaceOnUse"><stop offset="0.08"/><stop offset="0.47" stop-color="#333"/><stop offset="1"/></linearGradient><linearGradient id="linear-gradient-4" x1="212.15" y1="147.18" x2="437.28" y2="147.18" gradientTransform="matrix(-1, 0, 0, 1, 534.84, 0)" gradientUnits="userSpaceOnUse"><stop offset="0.02"/><stop offset="0.38" stop-color="#232323"/><stop offset="0.52" stop-color="#292929"/><stop offset="0.78" stop-color="#161616"/><stop offset="1"/></linearGradient><clipPath id="clip-path"><path class="cls-1" d="M20.78,10.73V198.22C20.78,204.15,26,209,32.35,209l325.9,0c6.39,0,11.58-4.8,11.58-10.73l0-187.49c0-5.93-5.18-10.73-11.58-10.73L32.4,0C26,0,20.79,4.8,20.78,10.73Z"/></clipPath><linearGradient id="linear-gradient-5" x1="30.52" y1="14.21" x2="208.33" y2="160.67" gradientUnits="userSpaceOnUse"><stop offset="0"/><stop offset="0.68" stop-color="#111"/><stop offset="1" stop-color="#131313"/></linearGradient><linearGradient id="linear-gradient-6" x1="6.38" y1="38.49" x2="365.78" y2="38.49" gradientUnits="userSpaceOnUse"><stop offset="0.17"/><stop offset="0.43" stop-color="#3c3a38"/><stop offset="0.53" stop-color="#403d3b"/><stop offset="0.65" stop-color="#312f2e"/><stop offset="0.85"/></linearGradient><linearGradient id="linear-gradient-7" x1="40.51" y1="82.62" x2="229.36" y2="82.62" gradientUnits="userSpaceOnUse"><stop offset="0" stop-color="#a3b5b8"/><stop offset="0.14" stop-color="#c4d1df"/><stop offset="0.31" stop-color="#d2dcef"/><stop offset="0.52" stop-color="#e0e8ff"/><stop offset="0.72" stop-color="#d0daec"/><stop offset="0.87" stop-color="#c2cedb"/><stop offset="1" stop-color="#a3b5b8"/></linearGradient></defs><title>Recurso 4</title><g class="cls-2"><g id="Capa_2" data-name="Capa 2"><g id="Cards"><path class="cls-3" d="M22.18,12l0,187.49a11.67,11.67,0,0,0,11.57,11.32l325.9.06c6.39,0,12.18-5.39,12.17-11.32l0-187.49c0-5.93-5.78-10.73-12.18-10.73L33.77,1.27C27.37,1.27,22.19,6.07,22.18,12Z"/><path class="cls-4" d="M20.81,10.73l0,187.49C20.78,204.15,26,209,32.35,209l325.9,0c6.39,0,11.58-4.8,11.58-10.73l0-187.49c0-5.93-5.18-10.73-11.58-10.73L32.4,0C26,0,20.82,4.8,20.81,10.73Z"/><path class="cls-4" d="M20.81,10.73l0,187.49C20.78,204.15,26,209,32.35,209l325.9,0c6.39,0,11.58-4.8,11.58-10.73l0-187.49c0-5.93-5.18-10.73-11.58-10.73L32.4,0C26,0,20.82,4.8,20.81,10.73Z"/><path class="cls-5" d="M20.78,125.09c3.85-1.09,7.8-2.24,11.93-3.54,115.39-36.28,217.92-26.94,298,14.9v13c-13.92-5.11-121.18-41.48-243.51-8.39-25.74,7-51.31,24.23-66.37,36.42Z"/><path class="cls-6" d="M20.78,132.74c39.51,9,87.17,8.11,143.68-11.54,163.36-56.82,187-5.17,187-5.17l0,26.81c-.75-16.24-35.69-35.25-131.54-.34C151,167.61,80.26,170.11,20.78,152.91Z"/><path class="cls-7" d="M20.78,102.85c80.64,33.25,182.43,73,301.91-13.52v81.83s-89.76,54.5-211.13,25.25c-40.18-9.67-65.65-30.3-90.78-51.62Z"/><g class="cls-8"><g class="cls-9"><path class="cls-10" d="M76.81,209.52s68.16-6,138-84.71C274.08,57.93,280.91,0,280.91,0H0V209.52Z"/></g></g><path class="cls-11" d="M328.81,154.22a1.06,1.06,0,0,1-.39-.77,2.28,2.28,0,0,1,.4-1.09h5.3a2.15,2.15,0,0,1,.16.85,2.06,2.06,0,0,1-.12.68h-2a8.83,8.83,0,0,1-1.58-.15l-.06.08a13,13,0,0,1,1,.87l1.61,1.59a1.43,1.43,0,0,1-.75,1,2.3,2.3,0,0,0-.9-.19,1.35,1.35,0,0,0-1.49,1.4,1.55,1.55,0,0,0,1.74,1.58,3.52,3.52,0,0,0,2-.67,2.16,2.16,0,0,1,.83,1.19,5,5,0,0,1-3.08.95c-1.81,0-3.49-1-3.49-3a2.54,2.54,0,0,1,2.59-2.6,3.11,3.11,0,0,1-.49-.39Z"/><path class="cls-11" d="M323.16,161.3a5.15,5.15,0,0,1-.94.07,5.39,5.39,0,0,1-1-.07v-.86c0-.31,0-.59,0-.87H320a3,3,0,0,1-.13-.85,3.77,3.77,0,0,1,.06-.66h1.35c0-.29,0-.56,0-.87v-1.57l.09-.08h.48a1.27,1.27,0,0,1,1.32,1.42v1.1h0c.28,0,1.27,0,1.85.09l0-.06a17,17,0,0,1-1.34-2.57l-1.34-2.91a2.49,2.49,0,0,1,1.79-.36l2.46,5.33a2.49,2.49,0,0,1,.28.88,2.24,2.24,0,0,1-.43,1.12H324.1l-1,0c0,.28,0,.56,0,.87Z"/><path class="cls-11" d="M312.82,152.36h5.24l.12.09.23,4.17a1.69,1.69,0,0,1-1,.62,2.49,2.49,0,0,0-1.46-.51,1.5,1.5,0,0,0-1.66,1.59A1.6,1.6,0,0,0,316,160a3.45,3.45,0,0,0,1.94-.65,2.36,2.36,0,0,1,.8,1.19,4.56,4.56,0,0,1-2.89.93c-1.79,0-3.56-1-3.56-3.26a2.8,2.8,0,0,1,3.11-2.9,3.6,3.6,0,0,1,1.05.15l-.05-.29-.06-.8c0-.12,0-.32,0-.53h-2.83c-.54,0-.84-.27-.84-.77A1.89,1.89,0,0,1,312.82,152.36Z"/><path class="cls-11" d="M307.52,161.5a3.09,3.09,0,0,1-3.29-3.18c0-2.1,1.09-3,2.71-3a3.33,3.33,0,0,1,2,.66c-.07-1.39-.67-2.39-2.07-2.39a4.18,4.18,0,0,0-1.51.29,1.75,1.75,0,0,1-.65-1.25,5.35,5.35,0,0,1,2.31-.46c2.53,0,3.95,1.8,3.95,4.68,0,2.6-.73,3.36-1,3.69A3.08,3.08,0,0,1,307.52,161.5Zm-.07-4.72c-.76,0-1.27.42-1.27,1.65,0,1,.42,1.71,1.31,1.71a1.11,1.11,0,0,0,.92-.44,3.48,3.48,0,0,0,.51-2.15v-.18A2.33,2.33,0,0,0,307.45,156.78Z"/><path class="cls-11" d="M78.61,182.41a2.69,2.69,0,0,1-1.4.49l-3.95-9.71a3.11,3.11,0,0,1,1.4-.5Z"/><path class="cls-11" d="M116.46,175.44a2.3,2.3,0,0,1,.57-.08,2,2,0,0,1,.55,0l1.37,4.94s.06,0,.08-.09c.1-.49.25-1.07.39-1.54l.84-2.81c.11-.41.31-.57.68-.57a2.12,2.12,0,0,1,.77.17l-1.65,5.35c-.14.47-.43.54-.85.54a8.07,8.07,0,0,1-1-.05l-1.81-5.84Z"/><path class="cls-11" d="M113.08,175.42,111,181.28a1.81,1.81,0,0,0,.72.14c.41,0,.6-.13.75-.62l.27-.79H115l.45,1.35a2.21,2.21,0,0,0,.54,0,2.18,2.18,0,0,0,.6-.08l0-.06-2.1-5.86a5.71,5.71,0,0,0-.73,0A4.28,4.28,0,0,0,113.08,175.42Zm0,3.66.28-.89c.16-.49.37-1.16.51-1.69h.05c.1.45.3,1.07.42,1.48l.36,1.1h-1.62Z"/><path class="cls-11" d="M108.85,180.4v-4.3c0-.52.24-.75.73-.75h.47l.07.07v5.26a.66.66,0,0,1-.73.69H107.1c-.45,0-.75-.19-.81-.56a2.35,2.35,0,0,1,0-.45H108C108.26,180.36,108.55,180.37,108.85,180.4Z"/><path class="cls-11" d="M105.23,175.41v5.94a3.55,3.55,0,0,1-.63.05,3.48,3.48,0,0,1-.63-.05v-5.94a3.48,3.48,0,0,1,.63,0A3.55,3.55,0,0,1,105.23,175.41Z"/><path class="cls-11" d="M98.41,175.8a2.92,2.92,0,0,0-1,2.58,2.88,2.88,0,0,0,1,2.58,3.12,3.12,0,0,0,1.69.44c.79,0,1.4,0,2.21,0l.07-.05v-5.86l-.07,0c-.8,0-1.42,0-2.21,0A3.21,3.21,0,0,0,98.41,175.8Zm.28,2.58c0-1,.18-2.09,1.41-2.09h1v4.2h-1C98.87,180.48,98.69,179.33,98.69,178.38Z"/><path d="M328.13,154.85a1,1,0,0,1-.39-.77,2.28,2.28,0,0,1,.4-1.09h5.29a2,2,0,0,1,.16.85,2,2,0,0,1-.11.68h-2a8.1,8.1,0,0,1-1.59-.15l-.05.08c.25.18.76.64,1,.87l1.61,1.59a1.5,1.5,0,0,1-.75,1,2.19,2.19,0,0,0-.91-.2,1.36,1.36,0,0,0-1.49,1.4,1.56,1.56,0,0,0,1.75,1.59,3.43,3.43,0,0,0,2-.68,2.13,2.13,0,0,1,.84,1.19,5,5,0,0,1-3.09.95c-1.8,0-3.48-1-3.48-3a2.54,2.54,0,0,1,2.59-2.61,3.11,3.11,0,0,1-.49-.39Z"/><path d="M322.48,161.94a6.41,6.41,0,0,1-1.89,0v-.87c0-.31,0-.58,0-.87h-1.28a3,3,0,0,1-.13-.85,3.06,3.06,0,0,1,.06-.66h.58l.77,0c0-.29,0-.57,0-.88v-1.57l.09-.08h.48a1.27,1.27,0,0,1,1.32,1.42v1.11h0c.28,0,1.26,0,1.84.08l.05-.06a17.35,17.35,0,0,1-1.34-2.56l-1.34-2.92a2.54,2.54,0,0,1,1.79-.36l2.46,5.33a2.48,2.48,0,0,1,.28.89,2.42,2.42,0,0,1-.43,1.12h-2.39c-.33,0-.64,0-.95,0,0,.29,0,.56,0,.87Z"/><path d="M312.14,153h5.23l.12.09.24,4.18a1.78,1.78,0,0,1-1,.62,2.47,2.47,0,0,0-1.46-.51,1.5,1.5,0,0,0-1.65,1.59,1.6,1.6,0,0,0,1.7,1.71,3.46,3.46,0,0,0,1.93-.65,2.3,2.3,0,0,1,.81,1.19,4.64,4.64,0,0,1-2.89.92c-1.79,0-3.56-1-3.56-3.26a2.79,2.79,0,0,1,3.11-2.9,4,4,0,0,1,1.05.15l-.05-.29-.06-.8c0-.12,0-.32,0-.52h-2.84a.73.73,0,0,1-.83-.78A1.89,1.89,0,0,1,312.14,153Z"/><path d="M306.84,162.13a3.09,3.09,0,0,1-3.29-3.17c0-2.11,1.08-3,2.71-3a3.27,3.27,0,0,1,2,.67c-.07-1.4-.67-2.39-2.07-2.39a4,4,0,0,0-1.51.29,1.79,1.79,0,0,1-.65-1.26,5.31,5.31,0,0,1,2.31-.46c2.53,0,3.95,1.8,3.95,4.68,0,2.6-.73,3.36-1,3.69A3.08,3.08,0,0,1,306.84,162.13Zm-.08-4.72c-.75,0-1.26.42-1.26,1.65,0,1,.42,1.72,1.31,1.72a1.14,1.14,0,0,0,.92-.44,3.53,3.53,0,0,0,.51-2.16V158A2.33,2.33,0,0,0,306.76,157.41Z"/><path d="M77.93,183.05a2.8,2.8,0,0,1-1.41.48l-3.94-9.7a2.89,2.89,0,0,1,1.4-.5Z"/><path d="M115.77,176.07a2.36,2.36,0,0,1,.58-.07,2.55,2.55,0,0,1,.55,0l1.36,5s.07,0,.09-.1a15.77,15.77,0,0,1,.39-1.54l.84-2.81c.11-.41.31-.57.68-.57a2.17,2.17,0,0,1,.77.17l-1.65,5.35c-.14.47-.44.54-.85.54s-.7,0-1,0l-1.81-5.85Z"/><path d="M112.39,176.05l-2,5.86a1.81,1.81,0,0,0,.72.15c.4,0,.6-.13.75-.63l.27-.79h2.23l.44,1.36a3.09,3.09,0,0,0,.55,0,2.18,2.18,0,0,0,.6-.08l0-.06-2.1-5.86a6,6,0,0,0-.73,0A4.48,4.48,0,0,0,112.39,176.05Zm0,3.67.28-.89c.16-.5.36-1.17.51-1.69h0c.09.44.29,1.07.42,1.47l.36,1.11h-1.62Z"/><path d="M108.17,181v-4.29c0-.53.23-.75.73-.75h.47l.07.06v5.26a.66.66,0,0,1-.73.69h-2.29c-.45,0-.75-.19-.82-.56a3.4,3.4,0,0,1,0-.45h1.74C107.58,181,107.87,181,108.17,181Z"/><path d="M104.54,176v6a4.54,4.54,0,0,1-.63,0,4.84,4.84,0,0,1-.63,0v-6a3.55,3.55,0,0,1,.63,0A3.39,3.39,0,0,1,104.54,176Z"/><path d="M97.73,176.43a3.79,3.79,0,0,0,0,5.17,3.19,3.19,0,0,0,1.68.43c.79,0,1.4,0,2.22,0l.07-.06v-5.86l-.07-.05c-.81,0-1.43,0-2.22,0A3.19,3.19,0,0,0,97.73,176.43ZM98,179c0-1,.18-2.09,1.41-2.09h1v4.21h-1C98.18,181.11,98,180,98,179Z"/><rect class="cls-12" x="20.78" y="20.8" width="349.1" height="35.4"/><rect class="cls-13" x="229.36" y="74.33" width="28.86" height="16.59"/><rect class="cls-14" x="40.51" y="69.56" width="188.86" height="26.14"/><rect class="cls-15" x="40.51" y="73.2" width="188.86" height="3.65"/><rect class="cls-15" x="40.51" y="80.49" width="188.86" height="3.65"/><rect class="cls-15" x="40.51" y="87.79" width="188.86" height="3.65"/><path d="M201.24,86.6l-.87,0c0-.32,0-.59,0-.92V79a4.41,4.41,0,0,0-1.45,0,6.57,6.57,0,0,1-2.75,2.62,1.3,1.3,0,0,0,.65.85A5.87,5.87,0,0,0,199,80.94c0,.58-.08,1.31-.08,1.65V85.7c0,.33,0,.6,0,.92l-.84,0h-1.35a2.4,2.4,0,0,0-.06.6,2.46,2.46,0,0,0,.06.59h5.54a2.37,2.37,0,0,0,.06-.59,2.4,2.4,0,0,0-.06-.6Z"/><path d="M205.46,86.66a4.52,4.52,0,0,1,1.45-1.58l1.13-.9c1-.75,1.84-1.52,1.84-2.85A2.57,2.57,0,0,0,207,78.78a3.15,3.15,0,0,0-3,2,1.5,1.5,0,0,0,1.11.47A1.93,1.93,0,0,1,206.88,80a1.31,1.31,0,0,1,1.42,1.35,2.37,2.37,0,0,1-1.1,1.84l-1.44,1.17c-1,.77-1.84,1.72-1.84,2.59,0,.3.38.71.6.89h4.58c.59,0,.89-.23,1-.7a4.89,4.89,0,0,0,0-.54h-2.7C206.94,86.55,206.19,86.59,205.46,86.66Z"/><path d="M215.18,82.43a5.76,5.76,0,0,0,.53-.42l1.54-1.53a.89.89,0,0,0,.31-.63,2,2,0,0,0-.32-.9H212.1a1.9,1.9,0,0,0-.13.7,1.63,1.63,0,0,0,.09.53h2.08a9.41,9.41,0,0,0,1.7-.14l0,.07c-.25.19-.78.68-1,.89l-1.84,1.85a1.33,1.33,0,0,0,.61.77,2.38,2.38,0,0,1,1-.24A1.51,1.51,0,0,1,216.33,85a1.78,1.78,0,0,1-2,1.84,3.54,3.54,0,0,1-2.06-.69,1.85,1.85,0,0,0-.67.94,4.74,4.74,0,0,0,2.94.9c1.64,0,3.34-1,3.34-2.94A2.53,2.53,0,0,0,215.18,82.43Z"/><path d="M225.17,84.71h-.67c0-.22,0-.49,0-.72V82.2l-.07-.07H224a1,1,0,0,0-1,1.09v1.06c0,.1,0,.29,0,.44h-.54c-.31,0-1.12,0-1.68.07l0-.06a16.64,16.64,0,0,0,1-2l1.7-3.63a2.12,2.12,0,0,0-1.43-.26l-2.49,5.33a2.88,2.88,0,0,0-.29.86,1.77,1.77,0,0,0,.35.86h2.61l.79,0c0,.23,0,.51,0,.74v1.16a4.33,4.33,0,0,0,.73,0,4.73,4.73,0,0,0,.75,0V86.63c0-.23,0-.51,0-.74l.67,0h.72a2.07,2.07,0,0,0,.11-.66,3.61,3.61,0,0,0-.05-.54Z"/></g></g></g></svg>