<svg xmlns="http://www.w3.org/2000/svg" xmlns:xlink="http://www.w3.org/1999/xlink" viewBox="0 0 370.17 211.08"><defs><style>.cls-1{fill:none;}.cls-2{fill:url(#linear-gradient);}.cls-3{isolation:isolate;}.cls-4{fill:url(#linear-gradient-2);}.cls-5{fill:url(#radial-gradient);}.cls-11,.cls-45,.cls-6,.cls-7,.cls-8{mix-blend-mode:screen;}.cls-6{fill:url(#linear-gradient-3);}.cls-7{fill:url(#linear-gradient-4);}.cls-8{fill:url(#linear-gradient-5);}.cls-9{clip-path:url(#clip-path);}.cls-10{mix-blend-mode:overlay;}.cls-11{fill:url(#linear-gradient-6);}.cls-12{fill:url(#linear-gradient-7);}.cls-13{fill:url(#linear-gradient-8);}.cls-14{fill:url(#linear-gradient-9);}.cls-15{fill:url(#linear-gradient-10);}.cls-16{fill:url(#linear-gradient-11);}.cls-17{fill:url(#linear-gradient-12);}.cls-18{fill:url(#linear-gradient-13);}.cls-19{fill:url(#linear-gradient-14);}.cls-20{fill:url(#linear-gradient-15);}.cls-21{fill:url(#linear-gradient-16);}.cls-22{fill:url(#linear-gradient-17);}.cls-23{fill:url(#linear-gradient-18);}.cls-24{fill:url(#linear-gradient-19);}.cls-25{fill:url(#linear-gradient-20);}.cls-26{fill:url(#linear-gradient-21);}.cls-27{fill:url(#linear-gradient-22);}.cls-28{fill:url(#linear-gradient-23);}.cls-29{fill:url(#linear-gradient-24);}.cls-30{fill:url(#linear-gradient-25);}.cls-31{fill:url(#linear-gradient-26);}.cls-32{fill:url(#linear-gradient-27);}.cls-33{fill:url(#linear-gradient-28);}.cls-34{fill:url(#linear-gradient-29);}.cls-35{fill:url(#linear-gradient-30);}.cls-36{fill:url(#linear-gradient-31);}.cls-37{fill:url(#linear-gradient-32);}.cls-38{fill:url(#linear-gradient-33);}.cls-39{fill:url(#linear-gradient-34);}.cls-40{fill:url(#linear-gradient-35);}.cls-41{fill:url(#linear-gradient-36);}.cls-42{fill:url(#linear-gradient-37);}.cls-43{fill:url(#linear-gradient-38);}.cls-44{clip-path:url(#clip-path-2);}.cls-45{fill:url(#linear-gradient-40);}</style><linearGradient id="linear-gradient" x1="307.66" y1="40.77" x2="332.77" y2="84.26" gradientUnits="userSpaceOnUse"><stop offset="0" stop-color="#999"/><stop offset="0.15" stop-color="#6d6d6d"/><stop offset="0.29" stop-color="#b4b4b4"/><stop offset="0.51" stop-color="#fff"/><stop offset="0.76" stop-color="#6f6f6f"/><stop offset="1" stop-color="#3b3b3b"/></linearGradient><linearGradient id="linear-gradient-2" x1="20.48" y1="106.07" x2="370.17" y2="106.07" gradientUnits="userSpaceOnUse"><stop offset="0"/><stop offset="0.24" stop-color="#2b2b2b"/><stop offset="0.6" stop-color="#7d7d7d"/><stop offset="1" stop-color="#3b3b3b"/></linearGradient><radialGradient id="radial-gradient" cx="66.19" cy="77.91" r="156.51" gradientTransform="translate(60.33 -42.26) scale(1.97 1.82)" gradientUnits="userSpaceOnUse"><stop offset="0" stop-color="#3d3d3d"/><stop offset="0.71"/></radialGradient><linearGradient id="linear-gradient-3" x1="58.32" y1="58.03" x2="289.39" y2="58.03" gradientUnits="userSpaceOnUse"><stop offset="0.07"/><stop offset="0.73" stop-color="#333"/><stop offset="1"/></linearGradient><linearGradient id="linear-gradient-4" x1="37.49" y1="49.05" x2="284.09" y2="49.05" gradientUnits="userSpaceOnUse"><stop offset="0.08"/><stop offset="0.47" stop-color="#333"/><stop offset="1"/></linearGradient><linearGradient id="linear-gradient-5" x1="66.29" y1="67" x2="291.42" y2="67" gradientUnits="userSpaceOnUse"><stop offset="0.02"/><stop offset="0.38" stop-color="#232323"/><stop offset="0.52" stop-color="#292929"/><stop offset="0.78" stop-color="#161616"/><stop offset="1"/></linearGradient><clipPath id="clip-path"><path class="cls-1" d="M20.78,12.29V199.78c0,5.93,5.18,10.74,11.57,10.74l325.9,0c6.39,0,11.59-4.79,11.58-10.72l0-187.49c0-5.93-5.18-10.74-11.58-10.74L32.4,1.56C26,1.56,20.79,6.36,20.78,12.29Z"/></clipPath><linearGradient id="linear-gradient-6" x1="30.52" y1="15.77" x2="208.33" y2="162.23" gradientUnits="userSpaceOnUse"><stop offset="0"/><stop offset="0.68" stop-color="#111"/><stop offset="1" stop-color="#131313"/></linearGradient><linearGradient id="linear-gradient-7" x1="113.8" y1="68.83" x2="31.16" y2="6.35" gradientUnits="userSpaceOnUse"><stop offset="0" stop-color="#e4b15d"/><stop offset="0.27" stop-color="#f0b744"/><stop offset="0.54" stop-color="#ffffe8"/><stop offset="0.75" stop-color="#efbf61"/><stop offset="0.9" stop-color="#eed19a"/><stop offset="1" stop-color="#d09655"/></linearGradient><linearGradient id="linear-gradient-8" x1="116.07" y1="64.62" x2="34.43" y2="2.9" xlink:href="#linear-gradient-7"/><linearGradient id="linear-gradient-9" x1="126.03" y1="51.83" x2="44.52" y2="-9.79" xlink:href="#linear-gradient-7"/><linearGradient id="linear-gradient-10" x1="106.14" y1="76.01" x2="24.96" y2="14.64" xlink:href="#linear-gradient-7"/><linearGradient id="linear-gradient-11" x1="134.83" y1="40.43" x2="53.65" y2="-20.94" xlink:href="#linear-gradient-7"/><linearGradient id="linear-gradient-12" x1="115.81" y1="63.24" x2="35.33" y2="2.39" xlink:href="#linear-gradient-7"/><linearGradient id="linear-gradient-13" x1="126.06" y1="50.89" x2="44.88" y2="-10.47" xlink:href="#linear-gradient-7"/><linearGradient id="linear-gradient-14" x1="130.95" y1="45.15" x2="49.38" y2="-16.52" xlink:href="#linear-gradient-7"/><linearGradient id="linear-gradient-15" x1="101.57" y1="82" x2="20" y2="20.33" xlink:href="#linear-gradient-7"/><linearGradient id="linear-gradient-16" x1="119.6" y1="58.99" x2="36.96" y2="-3.49" xlink:href="#linear-gradient-7"/><linearGradient id="linear-gradient-17" x1="107.84" y1="74.06" x2="25.5" y2="11.82" xlink:href="#linear-gradient-7"/><linearGradient id="linear-gradient-18" x1="52.09" y1="163.46" x2="52.09" y2="150.38" xlink:href="#linear-gradient"/><linearGradient id="linear-gradient-19" x1="60.03" y1="163.46" x2="60.03" y2="150.38" xlink:href="#linear-gradient"/><linearGradient id="linear-gradient-20" x1="67.88" y1="163.46" x2="67.88" y2="150.38" xlink:href="#linear-gradient"/><linearGradient id="linear-gradient-21" x1="75.84" y1="163.46" x2="75.84" y2="150.38" xlink:href="#linear-gradient"/><linearGradient id="linear-gradient-22" x1="307.49" y1="184.12" x2="307.49" y2="170.39" xlink:href="#linear-gradient"/><linearGradient id="linear-gradient-23" x1="264.37" y1="184.12" x2="264.37" y2="170.39" xlink:href="#linear-gradient"/><linearGradient id="linear-gradient-24" x1="269.6" y1="184.12" x2="269.6" y2="170.39" xlink:href="#linear-gradient"/><linearGradient id="linear-gradient-25" x1="275.24" y1="184.12" x2="275.24" y2="170.39" xlink:href="#linear-gradient"/><linearGradient id="linear-gradient-26" x1="278.83" y1="184.12" x2="278.83" y2="170.39" xlink:href="#linear-gradient"/><linearGradient id="linear-gradient-27" x1="283.54" y1="184.12" x2="283.54" y2="170.39" xlink:href="#linear-gradient"/><linearGradient id="linear-gradient-28" x1="219.32" y1="35.83" x2="219.32" y2="11.47" gradientUnits="userSpaceOnUse"><stop offset="0" stop-color="#b0b0b0"/><stop offset="0.53" stop-color="#fff"/><stop offset="1" stop-color="#ccc"/></linearGradient><linearGradient id="linear-gradient-29" x1="233.7" y1="35.83" x2="233.7" y2="11.47" xlink:href="#linear-gradient-28"/><linearGradient id="linear-gradient-30" x1="245.06" y1="35.83" x2="245.06" y2="11.47" xlink:href="#linear-gradient-28"/><linearGradient id="linear-gradient-31" x1="259.6" y1="35.83" x2="259.6" y2="11.47" xlink:href="#linear-gradient-28"/><linearGradient id="linear-gradient-32" x1="270.51" y1="35.83" x2="270.51" y2="11.47" xlink:href="#linear-gradient-28"/><linearGradient id="linear-gradient-33" x1="279.94" y1="35.83" x2="279.94" y2="11.47" xlink:href="#linear-gradient-28"/><linearGradient id="linear-gradient-34" x1="300.13" y1="35.83" x2="300.13" y2="11.47" xlink:href="#linear-gradient-28"/><linearGradient id="linear-gradient-35" x1="315.57" y1="35.83" x2="315.57" y2="11.47" xlink:href="#linear-gradient-28"/><linearGradient id="linear-gradient-36" x1="328.68" y1="35.83" x2="328.68" y2="11.47" xlink:href="#linear-gradient-28"/><linearGradient id="linear-gradient-37" x1="340.72" y1="35.83" x2="340.72" y2="11.47" xlink:href="#linear-gradient-28"/><linearGradient id="linear-gradient-38" x1="307.56" y1="40.59" x2="347.05" y2="108.99" xlink:href="#linear-gradient"/><clipPath id="clip-path-2"><path class="cls-2" d="M330.94,81.87c11.53,0,20.88-8.67,20.88-19.35s-9.35-19.35-20.88-19.35H309.48c-11.53,0-20.88,8.66-20.88,19.35S298,81.87,309.48,81.87Z"/></clipPath><linearGradient id="linear-gradient-40" x1="309.73" y1="41.2" x2="329.71" y2="75.82" xlink:href="#linear-gradient"/></defs><title>Recurso 5</title><g class="cls-3"><g id="Capa_2" data-name="Capa 2"><g id="Cards"><path class="cls-4" d="M20.52,12l0,187.49a11.68,11.68,0,0,0,11.58,11.32l325.89.06c6.39,0,12.18-5.39,12.18-11.32l0-187.49c0-5.93-5.78-10.73-12.18-10.73L32.1,1.27C25.71,1.27,20.53,6.07,20.52,12Z"/><path class="cls-5" d="M19.15,10.73l0,187.49c0,5.93,5.19,10.74,11.58,10.74l325.89,0c6.39,0,11.59-4.8,11.58-10.73l0-187.49C368.21,4.86,363,.06,356.62.06L30.73,0C24.34,0,19.16,4.8,19.15,10.73Z"/><path class="cls-5" d="M19.15,10.73l0,187.49c0,5.93,5.19,10.74,11.58,10.74l325.89,0c6.39,0,11.59-4.8,11.58-10.73l0-187.49C368.21,4.86,363,.06,356.62.06L30.73,0C24.34,0,19.16,4.8,19.15,10.73Z"/><path class="cls-6" d="M368.21,44.91c-3.86-1.09-7.81-2.24-11.94-3.54C240.88,5.09,138.35,14.43,58.32,56.27V69.22c13.92-5.12,121.18-41.48,243.51-8.4,25.74,7,51.31,24.23,66.38,36.42Z"/><path class="cls-7" d="M368.21,52.55C328.69,61.56,281,60.67,224.52,41c-163.37-56.81-187-5.16-187-5.16l0,26.81c.75-16.24,35.69-35.25,131.54-.34C238,87.42,308.72,89.93,368.21,72.73Z"/><path class="cls-8" d="M368.21,22.66c-80.65,33.26-182.44,73-301.92-13.52V91s89.76,54.5,211.14,25.25c40.17-9.68,65.64-30.3,90.78-51.62Z"/><g class="cls-9"><g class="cls-10"><path class="cls-11" d="M76.81,211.08s68.16-6,138-84.7C274.07,59.49,280.91,1.56,280.91,1.56H0V211.08Z"/></g></g><path class="cls-12" d="M76,24.57H45.11v8h22.6A15.64,15.64,0,0,1,76,24.57Z"/><path class="cls-13" d="M66.51,23.2V15h-12a9.08,9.08,0,0,0-9.34,8.23Z"/><rect class="cls-14" x="67.99" y="14.97" width="29.46" height="8.23"/><path class="cls-15" d="M66.51,38.22A14.13,14.13,0,0,1,67.19,34H45.11v8.53H67.19A14,14,0,0,1,66.51,38.22Z"/><path class="cls-16" d="M120.28,23.2A9.09,9.09,0,0,0,110.94,15h-12V23.2Z"/><path class="cls-17" d="M68,38.22c0,7.53,6.61,13.65,14.73,13.65s14.73-6.12,14.73-13.65S90.84,24.57,82.72,24.57,68,30.69,68,38.22Z"/><path class="cls-18" d="M98.93,38.22a13.72,13.72,0,0,1-.68,4.26h22.08V34H98.25A13.83,13.83,0,0,1,98.93,38.22Z"/><path class="cls-19" d="M97.73,32.59h22.6v-8H89.44A15.61,15.61,0,0,1,97.73,32.59Z"/><path class="cls-20" d="M67.71,43.85H45.11v8H76A15.64,15.64,0,0,1,67.71,43.85Z"/><path class="cls-21" d="M89.44,51.87h30.89v-8H97.74A15.66,15.66,0,0,1,89.44,51.87Z"/><path class="cls-22" d="M98.93,53.24v8.07H97.45V53.24H68v8.07H66.51V53.24H45.17a9.09,9.09,0,0,0,9.34,8.23h56.43a9.09,9.09,0,0,0,9.34-8.23Z"/><path d="M53.93,156a3.11,3.11,0,0,1-.49.39A2.54,2.54,0,0,1,56,159c0,1.95-1.68,3-3.49,3a5,5,0,0,1-3.08-.95,2.16,2.16,0,0,1,.83-1.19,3.46,3.46,0,0,0,2,.68A1.56,1.56,0,0,0,54,159a1.36,1.36,0,0,0-1.49-1.4,2.23,2.23,0,0,0-.91.2,1.49,1.49,0,0,1-.74-1l1.61-1.59c.25-.23.76-.69,1-.87l-.06-.08a8,8,0,0,1-1.58.15H49.92a2,2,0,0,1-.12-.68,2.15,2.15,0,0,1,.16-.85h5.3a2.28,2.28,0,0,1,.4,1.09,1,1,0,0,1-.39.77Z"/><path d="M60.92,161c0-.31,0-.58,0-.87-.31,0-.63,0-1,0H57.59a2.28,2.28,0,0,1-.43-1.12,2.48,2.48,0,0,1,.28-.89l2.46-5.33a2.55,2.55,0,0,1,1.79.36l-1.34,2.92A16.86,16.86,0,0,1,59,158.61l0,.06c.58-.06,1.57-.08,1.85-.08h0v-1.11a1.27,1.27,0,0,1,1.32-1.42h.48l.09.08v1.57c0,.31,0,.59,0,.88l.78,0h.58a3.85,3.85,0,0,1,.06.66,3,3,0,0,1-.13.85H62.79c0,.29,0,.56,0,.87v.87a6.55,6.55,0,0,1-1,.07,6.22,6.22,0,0,1-.94-.07Z"/><path d="M71.39,153.61a.73.73,0,0,1-.84.78H67.72c0,.2,0,.4,0,.52l-.06.8-.05.29a3.91,3.91,0,0,1,1.05-.15,2.8,2.8,0,0,1,3.11,2.9C71.76,161,70,162,68.2,162a4.62,4.62,0,0,1-2.89-.92,2.28,2.28,0,0,1,.8-1.19,3.52,3.52,0,0,0,1.94.65,1.6,1.6,0,0,0,1.7-1.71,1.5,1.5,0,0,0-1.65-1.59,2.5,2.5,0,0,0-1.47.51,1.79,1.79,0,0,1-1-.62L65.9,153l.12-.1h5.24A1.89,1.89,0,0,1,71.39,153.61Z"/><path d="M74.13,161c-.27-.33-1-1.09-1-3.68,0-2.89,1.42-4.69,4-4.69a5.35,5.35,0,0,1,2.31.46,1.77,1.77,0,0,1-.66,1.26,4.07,4.07,0,0,0-1.5-.29c-1.4,0-2,1-2.07,2.39a3.27,3.27,0,0,1,2-.67c1.62,0,2.71.92,2.71,3a3.36,3.36,0,0,1-5.72,2.2Zm1-3.16v.18a3.6,3.6,0,0,0,.5,2.16,1.14,1.14,0,0,0,.93.44c.89,0,1.31-.71,1.31-1.71,0-1.24-.51-1.66-1.27-1.66A2.33,2.33,0,0,0,75.16,157.88Z"/><path d="M305.43,183a2.72,2.72,0,0,0,1.41.49l3.94-9.71a3.11,3.11,0,0,0-1.4-.5Z"/><path d="M267.58,176a2.24,2.24,0,0,0-.57-.08,2.05,2.05,0,0,0-.55,0l-1.37,4.94s-.06,0-.08-.09a15.77,15.77,0,0,0-.39-1.54l-.84-2.81c-.11-.41-.31-.57-.68-.57a2.17,2.17,0,0,0-.77.17l1.65,5.35c.14.47.44.54.85.54a8.07,8.07,0,0,0,1-.05l1.81-5.84Z"/><path d="M270.24,175.93a5.84,5.84,0,0,0-.73,0l-2.1,5.86,0,.06a2.18,2.18,0,0,0,.6.08,2.21,2.21,0,0,0,.54,0l.45-1.35h2.23l.27.79c.15.49.34.62.75.62a1.81,1.81,0,0,0,.72-.14L271,176A4.28,4.28,0,0,0,270.24,175.93Zm.35,3.71h-1.23l.36-1.1c.13-.41.32-1,.42-1.48h.05c.14.53.35,1.2.51,1.69l.28.89Z"/><path d="M275.19,181v-4.3c0-.52-.23-.75-.73-.75H274l-.07.07v5.26a.66.66,0,0,0,.73.69h2.29c.45,0,.75-.19.81-.56a2.35,2.35,0,0,0,0-.45H276C275.78,180.93,275.49,180.94,275.19,181Z"/><path d="M278.82,176v5.94a3.41,3.41,0,0,0,.63.05,3.62,3.62,0,0,0,.63-.05V176a3.62,3.62,0,0,0-.63,0A3.41,3.41,0,0,0,278.82,176Z"/><path d="M284,175.93c-.79,0-1.41,0-2.22,0l-.07.05v5.86l.07.05c.81,0,1.43,0,2.22,0a3.11,3.11,0,0,0,1.68-.44,2.88,2.88,0,0,0,1-2.58,2.92,2.92,0,0,0-1-2.58A3.2,3.2,0,0,0,284,175.93Zm0,5.12h-1v-4.2h1c1.23,0,1.41,1.13,1.41,2.09S285.18,181.05,284,181.05Z"/><path class="cls-23" d="M53.28,155.52a3.19,3.19,0,0,1-.5.39,2.55,2.55,0,0,1,2.6,2.6c0,2-1.69,3-3.49,3a5,5,0,0,1-3.08-.95,2.11,2.11,0,0,1,.83-1.19,3.5,3.5,0,0,0,2,.67,1.55,1.55,0,0,0,1.74-1.58,1.36,1.36,0,0,0-1.49-1.4,2.35,2.35,0,0,0-.91.19,1.44,1.44,0,0,1-.74-1l1.61-1.59a13,13,0,0,1,1-.87l-.06-.08a8.83,8.83,0,0,1-1.58.15H49.27a1.82,1.82,0,0,1-.12-.68,2.15,2.15,0,0,1,.16-.85H54.6a2.3,2.3,0,0,1,.41,1.09,1.06,1.06,0,0,1-.39.77Z"/><path class="cls-24" d="M60.26,160.44c0-.31,0-.59,0-.87l-1,0H56.94a2.24,2.24,0,0,1-.43-1.12,2.49,2.49,0,0,1,.28-.88l2.46-5.33a2.5,2.5,0,0,1,1.79.36l-1.34,2.91a17.92,17.92,0,0,1-1.34,2.57l0,.06c.58-.06,1.56-.09,1.85-.09h0V157a1.27,1.27,0,0,1,1.33-1.42h.48l.09.08v1.57c0,.31,0,.58,0,.87H63.5a3.77,3.77,0,0,1,.06.66,3,3,0,0,1-.14.85H62.14c0,.28,0,.56,0,.87v.86a5.5,5.5,0,0,1-1,.07,5.28,5.28,0,0,1-.94-.07Z"/><path class="cls-25" d="M70.74,153.1c0,.5-.3.77-.84.77H67.07c0,.21,0,.41,0,.53l-.06.8,0,.29a3.53,3.53,0,0,1,1-.15,2.8,2.8,0,0,1,3.12,2.9,3.25,3.25,0,0,1-3.56,3.26,4.61,4.61,0,0,1-2.9-.93,2.38,2.38,0,0,1,.81-1.19,3.42,3.42,0,0,0,1.94.65,1.6,1.6,0,0,0,1.7-1.71,1.5,1.5,0,0,0-1.66-1.59,2.47,2.47,0,0,0-1.46.51,1.74,1.74,0,0,1-1-.62l.24-4.17.12-.09H70.6A1.93,1.93,0,0,1,70.74,153.1Z"/><path class="cls-26" d="M73.48,160.53c-.27-.33-1-1.09-1-3.69,0-2.88,1.41-4.68,4-4.68a5.35,5.35,0,0,1,2.31.46,1.76,1.76,0,0,1-.66,1.25,4.12,4.12,0,0,0-1.5-.29c-1.41,0-2,1-2.08,2.39a3.39,3.39,0,0,1,2-.66c1.62,0,2.71.91,2.71,3a3.1,3.1,0,0,1-3.3,3.18A3,3,0,0,1,73.48,160.53Zm1-3.16v.18A3.55,3.55,0,0,0,75,159.7a1.11,1.11,0,0,0,.92.44c.9,0,1.32-.7,1.32-1.71,0-1.23-.51-1.65-1.27-1.65A2.36,2.36,0,0,0,74.5,157.37Z"/><path class="cls-27" d="M304.82,182.41a2.69,2.69,0,0,0,1.4.49l3.94-9.71a3.07,3.07,0,0,0-1.4-.5Z"/><path class="cls-28" d="M267,175.44a2.3,2.3,0,0,0-.57-.08,2.12,2.12,0,0,0-.56,0l-1.36,4.94c-.05,0-.07,0-.09-.09-.1-.49-.24-1.07-.38-1.54l-.85-2.81c-.11-.41-.31-.57-.67-.57a2.12,2.12,0,0,0-.77.17l1.64,5.35c.14.47.44.54.86.54a8,8,0,0,0,1-.05l1.82-5.84Z"/><path class="cls-29" d="M269.63,175.36a6,6,0,0,0-.74,0l-2.09,5.86,0,.06a2.25,2.25,0,0,0,.61.08,2.31,2.31,0,0,0,.54,0l.44-1.35h2.24l.26.79c.15.49.35.62.75.62a1.83,1.83,0,0,0,.73-.14l-2.06-5.86A4.46,4.46,0,0,0,269.63,175.36Zm.34,3.71h-1.23l.37-1.1c.12-.41.32-1,.41-1.48h.06c.14.53.35,1.2.51,1.69l.28.89Z"/><path class="cls-30" d="M274.58,180.4v-4.3c0-.52-.24-.75-.74-.75h-.47l-.06.07v5.26a.66.66,0,0,0,.73.69h2.28c.45,0,.75-.19.82-.56a2.35,2.35,0,0,0,0-.45h-1.75C275.17,180.36,274.88,180.37,274.58,180.4Z"/><path class="cls-31" d="M278.2,175.41v5.94a3.48,3.48,0,0,0,.63.05,3.55,3.55,0,0,0,.63-.05v-5.94a3.55,3.55,0,0,0-.63,0A3.48,3.48,0,0,0,278.2,175.41Z"/><path class="cls-32" d="M283.33,175.36c-.79,0-1.41,0-2.22,0l-.06,0v5.86l.06.05c.82,0,1.43,0,2.22,0A3.06,3.06,0,0,0,285,181a2.86,2.86,0,0,0,1-2.58,2.9,2.9,0,0,0-1-2.58A3.15,3.15,0,0,0,283.33,175.36Zm0,5.12h-1v-4.2h1c1.23,0,1.41,1.13,1.41,2.09S284.56,180.48,283.33,180.48Z"/><path class="cls-33" d="M219.7,18.55c-2.68,0-3.92,2.3-3.92,6.58,0,4,1.58,6.14,4.26,6.14a8.44,8.44,0,0,0,4.9-1.91,4.27,4.27,0,0,1,1.8,2.27,11.21,11.21,0,0,1-7.35,2.69c-5.7,0-7.58-4.64-7.58-9.22,0-6.52,3.66-9.37,8-9.37s7,2.43,7,5.27c0,1.31-.73,2-2.14,2a7.16,7.16,0,0,1-1.5-.18C223.25,20.69,222.46,18.55,219.7,18.55Z"/><path class="cls-34" d="M230.09,20.8a3.61,3.61,0,0,1,3.13,2.35,3.72,3.72,0,0,1,3.58-2.33,6.48,6.48,0,0,1,1.69.18,6.51,6.51,0,0,1-.9,3.19,5.22,5.22,0,0,0-1.3-.18,3,3,0,0,0-2.65,1.62V34a12.81,12.81,0,0,1-1.86.13A13.24,13.24,0,0,1,230,34v-8.7a3.41,3.41,0,0,0-1-2.69A3.44,3.44,0,0,1,230.09,20.8Z"/><path class="cls-35" d="M242.89,28.58c.11,1.78.73,3.08,2.87,3.08a9.85,9.85,0,0,0,3.81-.89,3.9,3.9,0,0,1,1,2.07,10.13,10.13,0,0,1-5.41,1.48c-4.74,0-6.06-3.29-6.06-6.79,0-3.91,1.88-6.89,6.09-6.89,3.69,0,5.75,2.4,5.75,5.54a7.67,7.67,0,0,1-.32,2.4Zm0-2.4h4.68v-.32c0-1.51-.65-2.77-2.31-2.77S243,24.19,242.86,26.18Z"/><path class="cls-36" d="M258.72,20.74a6.87,6.87,0,0,1,2.88.71V14.92l.19-.18h1.41c1.5,0,2,.6,2,2.11V30.22a2.69,2.69,0,0,0,.78,2.17,3.38,3.38,0,0,1-1.21,1.78,3.21,3.21,0,0,1-2.65-1.54,5.55,5.55,0,0,1-4,1.69c-3.33,0-5-2.74-5-6.68C253.2,23.07,255.82,20.74,258.72,20.74Zm2.88,9.48V24.11a4.82,4.82,0,0,0-2.29-.76c-1.46,0-2.36,1.52-2.36,4.29s1,3.89,2.11,3.89A3.32,3.32,0,0,0,261.6,30.22Z"/><path class="cls-37" d="M273.26,34a12.48,12.48,0,0,1-1.83.13,13.13,13.13,0,0,1-1.86-.13V24.87c0-.89-.31-1.44-1.27-1.44h-.37a4.13,4.13,0,0,1-.16-1.17,4.72,4.72,0,0,1,.16-1.23c.79-.08,1.61-.13,2.14-.13h.49a2.53,2.53,0,0,1,2.7,2.74ZM269,16a4.76,4.76,0,0,1,1.84-.34,4.49,4.49,0,0,1,1.83.34,3.49,3.49,0,0,1,.28,1.36,3.38,3.38,0,0,1-.28,1.36,4.47,4.47,0,0,1-1.83.36,4.52,4.52,0,0,1-1.84-.36,3.38,3.38,0,0,1-.28-1.36A3.42,3.42,0,0,1,269,16Z"/><path class="cls-38" d="M284.67,22.18a4.34,4.34,0,0,1-.17,1.25l-3.41-.05v6.87a1.06,1.06,0,0,0,1.21,1.2h1.75a5.19,5.19,0,0,1,.29,1.65,2,2,0,0,1-.09.75,27.42,27.42,0,0,1-3.38.24c-2.26,0-3.38-1-3.38-3.19V23.41l-2.15,0a4.7,4.7,0,0,1-.14-1.25,4.62,4.62,0,0,1,.14-1.2l2.15,0V19.13c0-1.52.5-2.1,2-2.1h1.41l.19.16V21L284.5,21A4.29,4.29,0,0,1,284.67,22.18Z"/><path class="cls-39" d="M300.51,18.55c-2.68,0-3.92,2.3-3.92,6.58,0,4,1.58,6.14,4.26,6.14a8.42,8.42,0,0,0,4.9-1.91,4.33,4.33,0,0,1,1.81,2.27,11.28,11.28,0,0,1-7.36,2.69c-5.69,0-7.58-4.64-7.58-9.22,0-6.52,3.66-9.37,8-9.37s7,2.43,7,5.27c0,1.31-.73,2-2.14,2a7.16,7.16,0,0,1-1.5-.18C304.06,20.69,303.27,18.55,300.51,18.55Z"/><path class="cls-40" d="M320.49,34.17a3.4,3.4,0,0,1-2.68-1.49,6.05,6.05,0,0,1-4.17,1.64,3.93,3.93,0,0,1-4.23-3.91c0-3.06,2.54-4.42,5.5-4.42.65,0,1.52,0,2.37.08v-.7c0-1.36-.71-2-2.09-2a14.85,14.85,0,0,0-4.29.92,4.36,4.36,0,0,1-.95-2.43,19.18,19.18,0,0,1,6.17-1.18c2.59,0,4.82,1.28,4.82,4.41v5.36a2.16,2.16,0,0,0,.79,1.93A3.61,3.61,0,0,1,320.49,34.17Zm-3.21-3.58V28.32c-.71-.05-1.47-.08-2-.08-1.47,0-2.2.76-2.2,2a1.47,1.47,0,0,0,1.57,1.54A4.06,4.06,0,0,0,317.28,30.59Z"/><path class="cls-41" d="M325.08,20.8a3.63,3.63,0,0,1,3.13,2.35,3.71,3.71,0,0,1,3.58-2.33,6.45,6.45,0,0,1,1.68.18,6.51,6.51,0,0,1-.9,3.19,5.21,5.21,0,0,0-1.29-.18,3,3,0,0,0-2.65,1.62V34a13.16,13.16,0,0,1-3.69,0v-8.7a3.41,3.41,0,0,0-1.05-2.69A3.4,3.4,0,0,1,325.08,20.8Z"/><path class="cls-42" d="M339.84,20.74a6.8,6.8,0,0,1,2.88.71V14.92l.2-.18h1.41c1.49,0,2,.6,2,2.11V30.22a2.66,2.66,0,0,0,.79,2.17,3.45,3.45,0,0,1-1.22,1.78,3.21,3.21,0,0,1-2.65-1.54,5.54,5.54,0,0,1-4,1.69c-3.33,0-5-2.74-5-6.68C334.32,23.07,336.94,20.74,339.84,20.74Zm2.88,9.48V24.11a4.82,4.82,0,0,0-2.28-.76c-1.47,0-2.37,1.52-2.37,4.29s1,3.89,2.11,3.89A3.32,3.32,0,0,0,342.72,30.22Z"/><path class="cls-43" d="M330.94,81.87c11.53,0,20.88-8.67,20.88-19.35s-9.35-19.35-20.88-19.35H309.48c-11.53,0-20.88,8.66-20.88,19.35S298,81.87,309.48,81.87Z"/><path class="cls-2" d="M330.94,81.87c11.53,0,20.88-8.67,20.88-19.35s-9.35-19.35-20.88-19.35H309.48c-11.53,0-20.88,8.66-20.88,19.35S298,81.87,309.48,81.87Z"/><g class="cls-44"><path class="cls-45" d="M307.12,83.74v.06s0,.09,0,.09,0,0,0,0,0,0,0,0l0,0s0,0,0,0v0s0,0,.06,0a.16.16,0,0,1,.12,0h0s0,0,.05.06v0s0,0,.09,0a.62.62,0,0,0,.26-.1l0,0,0,0h0l0,0s0,0,.09,0h0l.12,0h.11a.2.2,0,0,0,.13,0,.19.19,0,0,1,.07-.08l.15,0h0l.05,0,.12,0H309a.11.11,0,0,0,.08,0l.06,0a.06.06,0,0,1,.05,0l0,0a.19.19,0,0,0,.11,0h.05a.26.26,0,0,0,.14,0l0,0,.06,0,0,0a.14.14,0,0,0,.11,0,.1.1,0,0,0,.11-.1.14.14,0,0,1,0-.07h0a.27.27,0,0,0,.12,0H310a1.47,1.47,0,0,0,.36-.17l.26-.19.2-.17.06-.05.13-.13a1,1,0,0,1,.19-.18l.08-.06c.06,0,.13-.08.15-.13l.1-.14a1.16,1.16,0,0,0,.11-.16,1,1,0,0,1,.11-.17.17.17,0,0,0,0,0,.05.05,0,0,0,0,0l.12-.16a1.15,1.15,0,0,1,.22-.19c.05,0,.18-.14.2-.24a.36.36,0,0,0,0-.15,1,1,0,0,1,.1-.23l0-.07a.53.53,0,0,0,.07-.28.11.11,0,0,1,0,0,.19.19,0,0,0,0-.07h-.08v0a.17.17,0,0,1,.07-.15.58.58,0,0,1,.21-.16h0l.16,0,.11,0,.14,0,0,0a.24.24,0,0,0,.13-.08l.06-.05a.61.61,0,0,0,.14-.17s0-.08-.07-.1l0,0,0,0a.48.48,0,0,0,.09-.16.79.79,0,0,0,0-.31.2.2,0,0,0,0-.05v0a.1.1,0,0,0,0-.09.21.21,0,0,0,0-.07.31.31,0,0,1,0-.09.28.28,0,0,1,0-.09.45.45,0,0,0,0-.11v0c0-.07,0-.12-.07-.15l0,0s-.08-.06-.08-.11a.74.74,0,0,1,0-.18v0h0c.08.06.14.06.17,0l0,0a.14.14,0,0,0,.07-.08l.1-.11,0,0s.05-.06.08-.06h.06a.13.13,0,0,0,.09,0s.08-.11.12-.18a.09.09,0,0,1,0-.06l.07-.1c0-.09.09-.13.14-.11h0c.06,0,.12-.06.19-.14h0l.06-.06s.05-.07.09-.07h0a.17.17,0,0,0,.12,0L315,77l.08,0,0,0a.35.35,0,0,0,.12-.08l0,0,.11-.13a.6.6,0,0,1,.13-.14.18.18,0,0,0,.07-.08.76.76,0,0,0,.06-.21.41.41,0,0,1,0-.08c0-.06.06-.12,0-.16h0s0,0,0-.14a2.62,2.62,0,0,1,0-.27v-.08c0-.1,0-.32,0-.41a.52.52,0,0,0,0-.11c0-.06,0-.11,0-.16v0a.34.34,0,0,1,0-.16l0,0c0-.06.09-.14,0-.19l-.11-.08-.06,0h0c-.08,0-.18-.1-.18-.19a.47.47,0,0,1,0-.12.21.21,0,0,0,0-.08,1.11,1.11,0,0,0-.07-.16l0,0s-.05,0,0-.1,0,0,0-.07a.1.1,0,0,0,.05-.07v0s0-.07,0-.09h-.06s0,0,0,0,0,0,0,0,0-.05.05-.09a.05.05,0,0,1,0,0s0,0,0,0,0,0-.05-.08l-.09-.1a.3.3,0,0,0-.08-.08.13.13,0,0,0-.06,0s-.06,0-.05-.08v0s0-.06.05-.16l0-.06c0-.07,0-.1.08-.16a.76.76,0,0,1,.07-.13l0-.06a.43.43,0,0,1,0-.07s0,0,0-.08v0a.38.38,0,0,0,.06-.13s0,0,0-.07a.25.25,0,0,1,0-.07l.08-.14a.2.2,0,0,0,0-.08s0,0,0,0a.05.05,0,0,1,0-.05.19.19,0,0,1,.13-.12h.07a.09.09,0,0,0,.06,0l.06-.09.07-.09.08,0a.32.32,0,0,0,.09-.08l.06-.11.06-.12,0,0a.85.85,0,0,1,.09-.14l0,0s0,0,.1-.09l.1-.1a.52.52,0,0,0,.12-.13l.14-.15.08-.08a1.06,1.06,0,0,1,.15-.15l0,0s.22-.16.38-.27l.27-.19a3,3,0,0,0,.36-.35l0,0a3.7,3.7,0,0,0,.24-.29,1,1,0,0,0,.09-.16.82.82,0,0,1,.1-.17l.1-.15a.93.93,0,0,0,.18-.28.29.29,0,0,1,0-.09.3.3,0,0,1,.05-.19l.07-.1a1.08,1.08,0,0,0,.11-.18.22.22,0,0,0,0-.14s0,0,0,0a.19.19,0,0,0,.07-.08,1.54,1.54,0,0,0,.15-.36l0,0s.07,0,.07-.08a.3.3,0,0,0,0-.1.19.19,0,0,1,0-.13s0-.06,0-.07,0,0,.05,0,.06,0,.09,0h0s0,0,0,0-.06-.08-.1-.09h0V66a.34.34,0,0,0,0-.09s0,0,0-.07,0,0,0-.07a.08.08,0,0,1,0,0s0,0,0-.08,0-.05,0-.07v0l-.06,0h0l-.1,0a.14.14,0,0,0-.12.06.08.08,0,0,0,0,0s0,0-.05.05a.31.31,0,0,1-.17,0h0s-.05,0-.07,0l-.06,0h0c-.07,0-.12,0-.15,0h0a.35.35,0,0,0-.12,0h-.06l-.08,0a.07.07,0,0,1-.06,0h-.27c-.05,0-.06,0-.09,0L318,66l0,0a.35.35,0,0,1-.14.07l-.05,0a.41.41,0,0,0-.18-.05.19.19,0,0,0-.09,0s0,0-.1.06a.49.49,0,0,1-.24.06h-.06a.76.76,0,0,1-.18-.09.7.7,0,0,1-.13-.16l0-.05a.08.08,0,0,1,0,0s0-.08-.08-.08h-.06a.15.15,0,0,1-.08,0s0,0-.07,0h0c0-.06,0-.08.12-.11l.07,0a.1.1,0,0,0,.08,0s.06-.1,0-.16v0s0,0,0-.09a.16.16,0,0,1-.06-.08s0-.07-.07-.07h0a.08.08,0,0,1-.07,0s0,0-.07-.07l0,0s-.06-.05-.06-.07h0s0-.07-.08-.09a.42.42,0,0,1-.2-.18.61.61,0,0,1,0-.06c0-.06,0-.09-.13-.12l-.15-.07-.06,0a1.28,1.28,0,0,1-.2-.11l-.06,0,0,0a.24.24,0,0,1-.13-.13,1.27,1.27,0,0,1-.11-.26.23.23,0,0,1,0-.14.45.45,0,0,0,0-.23.55.55,0,0,1-.08-.15.42.42,0,0,0-.11-.17.74.74,0,0,0-.21-.15l-.07,0a.63.63,0,0,0-.11-.08.12.12,0,0,1-.07-.15s0,0,0,0a.1.1,0,0,0,0-.07.51.51,0,0,1,0-.24,1.38,1.38,0,0,0,0-.26.28.28,0,0,0,0-.09V62a.18.18,0,0,0,0-.11s0,0,0-.06a.21.21,0,0,1-.06-.15.19.19,0,0,0-.09-.16l-.07,0a.36.36,0,0,1-.09-.08.21.21,0,0,0-.12-.08h0c-.06,0-.15-.12-.15-.18v0s0-.14,0-.15h0s0,0,0,0h0s.05,0,.06,0,0,0,0,0a.51.51,0,0,1-.16-.13l-.08-.14-.06-.11a2.82,2.82,0,0,1-.18-.29l0-.1a1.34,1.34,0,0,1-.06-.12s0-.07-.06-.11a.38.38,0,0,1-.05-.12.39.39,0,0,0-.06-.11l0-.07s0,0,0-.07a.2.2,0,0,1,0-.08.56.56,0,0,0-.11-.19h0a.74.74,0,0,1-.08-.12.33.33,0,0,0-.09-.11.27.27,0,0,1-.08-.1l0-.07a.56.56,0,0,1,0-.15V58.5s0,0,0,0a.3.3,0,0,0,.07.1.11.11,0,0,0,0,.05.3.3,0,0,0,.08.08.1.1,0,0,1,.05.09.39.39,0,0,0,0,.12h0s0,0,.09.11l.13.12.11.1a.08.08,0,0,0,.07,0s0,0,.05,0a.77.77,0,0,0,0-.2c0-.05,0-.1,0-.15l0-.09h0s0-.06,0-.09a.43.43,0,0,1,0,.16s0,0,0,.06a.19.19,0,0,1,0,.12c-.07.1-.06.12-.06.13s0,0,.06,0a.11.11,0,0,1,.08,0,.1.1,0,0,1,.09,0l.06.06a.37.37,0,0,0,.07.1l.08.1a4.06,4.06,0,0,0,.3.4.94.94,0,0,1,.12.2s0,0,.06.06l.05,0a1.51,1.51,0,0,1,.1.17s0,0,0,0a.08.08,0,0,0,0,.06s0,.06.05.1a.35.35,0,0,1,0,.08.27.27,0,0,0,.18.11h0c.1,0,.15.08.16.11a.77.77,0,0,0,.15.3.7.7,0,0,1,.14.21v0a.45.45,0,0,0,0,.12.4.4,0,0,0,.05.19s0,0,0,0a.21.21,0,0,0,0,.08v0a.16.16,0,0,0,0,.12.34.34,0,0,0,.12.12.46.46,0,0,1,.07.07h0a.57.57,0,0,0,.22.21,1.1,1.1,0,0,1,.14.11l.07.06s0,0,.07.1l.07.11a.24.24,0,0,1,.06.1.35.35,0,0,0,0,.07s0,.05,0,.12h0a.8.8,0,0,0,.17.22.26.26,0,0,0,.1.07s.06,0,.07.07,0,0,0,.06a.09.09,0,0,0,0,.09.38.38,0,0,1,.14.22.43.43,0,0,0,0,0,.5.5,0,0,1,0,.17.27.27,0,0,0,0,.2.25.25,0,0,0,0,.07.6.6,0,0,0,.05.16l0,0a.28.28,0,0,1,.07.16.42.42,0,0,0,0,.16l0,0a.5.5,0,0,1,0,.21s0,.08,0,.14a.08.08,0,0,0,0,0,.06.06,0,0,0,.06,0h.08l0,0s.05,0,.12,0l.12,0c.05,0,.1,0,.12,0l.09-.06h0a.1.1,0,0,0,.11-.06c0-.06,0-.06,0-.06l0,0h.05a.61.61,0,0,0,.14,0,1.13,1.13,0,0,0,.2,0l.07,0a.15.15,0,0,1,.09,0,.2.2,0,0,0,.11,0s.12-.08.17-.12h0a.19.19,0,0,0,.13,0,.76.76,0,0,0,.26-.19l0,0a.16.16,0,0,1,.12-.09h.14a.13.13,0,0,0,.08,0l.07,0a.14.14,0,0,1,.09,0h.05a.28.28,0,0,0,.26-.1l.17-.08h.08a.07.07,0,0,0,.06,0s0,0,0-.1a.81.81,0,0,0,0-.11s0,0,0-.06l.07-.06a.21.21,0,0,1,.13-.08.71.71,0,0,0,.22-.07h0a.15.15,0,0,1,.09,0l.05,0c.1,0,.1,0,.15,0h.18a.2.2,0,0,0,.11,0,.21.21,0,0,0,.1-.18.09.09,0,0,1,0,0s0,0,.06-.06a.41.41,0,0,1,.16,0,.23.23,0,0,0,.17,0s0-.09,0-.14,0-.16.07-.19l.17,0c.1,0,.21,0,.2-.1a.31.31,0,0,0,0-.13.36.36,0,0,1,0-.17s0,0,0,0,0-.23.1-.25h0s0,0,0,0,0,.06.06.06h0a.06.06,0,0,0,.05-.05l.05-.1a1.33,1.33,0,0,1,.14-.19l.07-.08a.69.69,0,0,0,.09-.2.59.59,0,0,0,0-.08l.06,0s.06,0,.06-.07a.07.07,0,0,0,0-.06.12.12,0,0,0-.08,0h-.11s0,0-.06-.06a.18.18,0,0,0-.1-.12.1.1,0,0,1-.07-.07.24.24,0,0,0,0-.09c0-.07,0-.1-.14-.13l-.17,0a.53.53,0,0,1-.24,0h0c-.13-.07-.2-.1-.23-.18l-.06-.09a1.12,1.12,0,0,1-.08-.18c0-.1,0-.17,0-.24s0-.09,0-.13,0-.07-.06-.07-.06,0-.11.09l0,0s-.05,0-.08.06l-.13.11-.09.09s0,0,0,.08a1.09,1.09,0,0,0-.09.11s0,0-.1.1a.36.36,0,0,0-.11.11s0,0,0,0h0a.7.7,0,0,0-.29,0,.21.21,0,0,1-.08,0,.15.15,0,0,0-.13,0l-.07,0,0,0h0l0-.06s0,0,0-.06l-.06-.05-.06,0,0,0,0,0s0,0,0,0l.06-.05s.06,0,0-.1l0,0s-.06-.08-.05-.12,0,0,0,0a0,0,0,0,0,0,0s0,0-.06-.07-.19-.12-.2-.12,0,0,0,.07,0,.07-.06.12a.2.2,0,0,0,0,.15,0,0,0,0,1,0,0h0l0,0,0-.07a.44.44,0,0,0-.11-.09c-.05,0-.07,0-.07-.06s0,0,0,0a.24.24,0,0,0,0-.07c0-.07,0-.1,0-.13v0s0,0,0,0,0,0,0-.07l-.15-.11a.53.53,0,0,1-.13-.13l0,0v0a.58.58,0,0,0-.14-.12l-.05,0a.06.06,0,0,1-.05-.05.31.31,0,0,0-.1-.13l-.06-.06v0a1.51,1.51,0,0,1-.13-.33l0,0s0-.07,0-.1h.06s0,0,.07-.05a.13.13,0,0,0,0-.1s0,0,0,0h.22a.1.1,0,0,0,.11-.09l0,0s0,0,0,0a.5.5,0,0,0,.09.12l.06.06a.33.33,0,0,1,0,.06s0,.08.07.08h0s0,0,0,.08a.65.65,0,0,0,0,.13.33.33,0,0,0,.11.1.18.18,0,0,1,.1.11,1,1,0,0,1,0,.11c0,.07,0,.11.09.14h.12l.09,0a.38.38,0,0,1,.2.15l0,0s0,0,.07.06l.05,0,.11,0,.08,0a0,0,0,0,1,0,0,.09.09,0,0,0,.07.07h.15a.18.18,0,0,1,.13,0l.08,0h.05s0,0,.09,0l.08-.08.05,0,0,0h0a.19.19,0,0,1,0,.08s0,.08,0,.08l0,0,.06,0a.1.1,0,0,0,.09-.08.39.39,0,0,0,0-.11v0h0s0,0,0,0l.14.07.06,0,0,.08a1,1,0,0,0,.08.21.13.13,0,0,1,0,.08s0,.08.08.09l.1,0,.16,0,.11,0a.23.23,0,0,1,.14,0,.11.11,0,0,1,.06.06.1.1,0,0,0,.11,0h.41l.08,0a.19.19,0,0,0,.09,0l.08,0a.47.47,0,0,0,.24,0l.12,0,.1,0a1,1,0,0,1,.27-.05h0a.12.12,0,0,1,.07,0,.19.19,0,0,0,.08,0h.06l.08,0,.05,0H324a.35.35,0,0,1,.12,0,.28.28,0,0,0,.14,0l.3-.05.13,0a.19.19,0,0,1,.11,0l.06,0s0,0,0,.06a.32.32,0,0,0,0,.09.2.2,0,0,0,.11,0s.08,0,.09,0v.11c0,.07,0,.15.05.19l0,0c0,.05.09.08.13.08h0a.75.75,0,0,1,.2.08h0s0,0,0,0a.23.23,0,0,0,.05.07,1.13,1.13,0,0,0,.28.22h0a.2.2,0,0,0,.1,0,.23.23,0,0,0,.11,0,1.16,1.16,0,0,1,.2-.08s0,.07,0,.09l-.18.1-.11,0-.06,0-.06,0a.09.09,0,0,0-.1,0,.07.07,0,0,0,0,.07l.08,0a.18.18,0,0,1,.08,0l.07.09a.35.35,0,0,1,.09.06l.14.13.08.07.05.06a.32.32,0,0,0,.1.1h.09a.21.21,0,0,0,.11,0,.23.23,0,0,1,.14,0,.34.34,0,0,0,.16-.07h0c.07-.07.14-.15.11-.21a.21.21,0,0,0-.05-.07l0-.05h0a.11.11,0,0,0,0,0,.17.17,0,0,0,0-.1h0s0,0,0,.07,0,0,0,0v0a.55.55,0,0,1,0,.18l0,0s0,0,0,.06,0,0,0,0,.16.16.14.22,0,.05,0,.08a.17.17,0,0,0,0,.16.54.54,0,0,0,.07.13.26.26,0,0,1,0,.1v0a.49.49,0,0,0,0,.24l0,0s0,0,0,.15a2,2,0,0,0,.08.31.83.83,0,0,1,.05.18.38.38,0,0,1,0,.1,1.21,1.21,0,0,0,0,.14.67.67,0,0,0,.12.16l0,.05,0,0a.28.28,0,0,1,.08.19.34.34,0,0,0,.14.26.93.93,0,0,1,.19.35.13.13,0,0,0,0,.06,1.2,1.2,0,0,0,0,.17l0,.11a.63.63,0,0,0,.09.24l.25.3a.59.59,0,0,1,.1.21l0,.09a.41.41,0,0,0,.09.22.4.4,0,0,1,.05.19.83.83,0,0,0,0,.15.23.23,0,0,0,.06.09.68.68,0,0,1,0,.07.92.92,0,0,0,.17.24l0,0c.05,0,.1.1.16.1h0c.06,0,.18-.06.21-.11a.48.48,0,0,0,0-.17v-.06s0-.05.08-.07l.08,0,.11,0h.15s.05,0,.05,0,0-.06-.09-.08h-.11s0,0,0,0a.1.1,0,0,1,0-.06.56.56,0,0,0,0-.08.26.26,0,0,0,0-.11v0s0,0,0,0h.06a.15.15,0,0,0,.09,0c.06,0,.07-.06.06-.14v0a.29.29,0,0,1,0-.09.15.15,0,0,0,0-.14.17.17,0,0,0-.06-.06s-.05,0,0-.12l.08-.15a.62.62,0,0,0,.1-.22.87.87,0,0,0,0-.36h0a1.15,1.15,0,0,1-.06-.25,1.1,1.1,0,0,1,0-.16.35.35,0,0,1,0-.13s0,0,0-.06a.16.16,0,0,1,0-.15l.05-.06a.12.12,0,0,1,.07-.07h0a.08.08,0,0,0,.07,0c.07,0,.09,0,.11-.09s0,0,0,0a.05.05,0,0,1,0-.06h0a.12.12,0,0,0,.09,0h0a.12.12,0,0,0,.1,0,.38.38,0,0,0,.12-.18.08.08,0,0,1,0,0s0,0,0-.06,0,0,0,0h0l0,0a.86.86,0,0,1,.2-.13l.06,0c.05,0,.06,0,.09-.08s0,0,0-.05a.1.1,0,0,1,.08-.09l0,0a.41.41,0,0,0,.18-.15.31.31,0,0,0,.05-.1.26.26,0,0,1,.08-.11.39.39,0,0,0,.08-.1l.11-.1a.46.46,0,0,0,.07-.07.2.2,0,0,1,.09-.06.31.31,0,0,0,.15,0h0a.57.57,0,0,0,.15-.12s0,0,0,0,.08-.09.07-.16a.64.64,0,0,0,0-.09s0,0,0-.07,0-.13.06-.15h.06a.18.18,0,0,0,.11,0l.05,0s.06,0,.06-.11a.13.13,0,0,0,0-.06v.05a.23.23,0,0,0,0,.17h0a.08.08,0,0,0,.06,0s.05,0,.06,0a.35.35,0,0,0,0-.12v0h0c0,.05.05.11.11.11h0l.08,0a.2.2,0,0,0,.11-.06l0,0h0l0,0s0,0,0,0,0,0,0,0a.12.12,0,0,0,0-.1v-.07a.19.19,0,0,1,0,.07s0,0,0,0l0,0s0,0,0,0l.06,0,.06,0s0,0,0,0l.05,0s.05,0,.05-.07h0s0,.08.06.08h0c.05,0,.06-.09.07-.17h0v0s0,.05.05.05,0,0,0,0a.56.56,0,0,1,.05.18.75.75,0,0,0,0,.16.27.27,0,0,1,.07.08l.06.06.1.14,0,.07a.12.12,0,0,0,.1.09c.06,0,.09,0,.1.06a.07.07,0,0,1,0,0s0,.11.07.11h0a.15.15,0,0,0,.09-.06l.05.05h.09v0s0,0,0,0a.07.07,0,0,0-.05.1.22.22,0,0,0,.06.07s0,0,0,.06,0,0,0,.06,0,0,0,.07l0,0h0a.12.12,0,0,0,.08,0l0,0,0,0,0,.06c0,.05.06.07.07.09a.62.62,0,0,1,.08.12.34.34,0,0,0,0,.1s0,.06,0,.09,0,0,0,.06a.11.11,0,0,1,0,.06s0,.07,0,.11a.38.38,0,0,1,0,.15l0,.08a.27.27,0,0,0,0,.13.43.43,0,0,0,0,0,.06.06,0,0,0,0,.06l.07,0,.17,0a.15.15,0,0,0,.08,0,.05.05,0,0,0,0,0v0l0,0a.08.08,0,0,1,0,0s0,0,.06,0,0,0,0-.06a.53.53,0,0,1,0-.16.08.08,0,0,0,0,0l.07,0,.08,0s.06,0,.12-.08l0,0a.16.16,0,0,0,.09-.16s0,0,0-.07a.73.73,0,0,0,.1.2.21.21,0,0,1,0,.06c0,.05.05.09.08.09h0s0,0,0,0v.12a.3.3,0,0,0,.07.16s.05.05,0,.12v0a.27.27,0,0,0,0,.19.28.28,0,0,1,0,.12.4.4,0,0,0,0,.13l0,0a.54.54,0,0,1,.06.11.18.18,0,0,1,0,.06s0,0,.05.1a1,1,0,0,1,.11.19s0,0,0,0l0,0a.19.19,0,0,1,0,.08s0,0,0,0a.14.14,0,0,0,0,.15.31.31,0,0,1,.05.2h0a.15.15,0,0,0,0,.07.62.62,0,0,1,0,.13.33.33,0,0,1,0,.06.09.09,0,0,0,0,.08.67.67,0,0,0,0,.18.13.13,0,0,0,0,.06.38.38,0,0,1,0,.1l0,0a.41.41,0,0,0,0,.1s0,.08,0,.12,0,.11,0,.17a.28.28,0,0,0,0,.22.61.61,0,0,1,0,.14c0,.06,0,.08,0,.08s0,0,0,0a.19.19,0,0,1,0-.06.11.11,0,0,1,0-.07l0-.07h0l0,0c.06.09.07.1.13.12h0s0,0,0,.07a.76.76,0,0,0,0,.16v0l0,0,.06-.11h0v0s0,0,0,0,0,0,.05.07a.23.23,0,0,1,.07.13,0,0,0,0,1,0,0s0,.09.06.11h0l0,0h0s0,0,0,0,0,0,0,.06,0,.06,0,.08,0,0,.06.09a.65.65,0,0,1,0,.14.14.14,0,0,0,0,.09s0,0,0,0a.76.76,0,0,0,.07.13l0,0s.05,0,0,.09a.27.27,0,0,0,0,.16.17.17,0,0,1,0,0l0,0a.2.2,0,0,1,.05.09.21.21,0,0,0,.07.1.12.12,0,0,1,.06.1c0,.13,0,.17.09.21l.21.17.08,0,.07,0,.16.1.08,0,0,0,.13.09.06,0s0,0,0,0a0,0,0,0,1,0,0s0,.05,0,.07h.15s0,0,0,0h0a.1.1,0,0,0,.08,0h.06l.05,0a.07.07,0,0,0,0,0s0,0,0,0,0,0-.06-.1a.66.66,0,0,1-.18-.29.08.08,0,0,1,0,0s0,0-.09-.13-.06-.06-.08-.06,0,0-.07-.1a.51.51,0,0,1,0-.21v-.09s0,0,0-.06a.21.21,0,0,1,0-.14.45.45,0,0,0,0-.08.16.16,0,0,0,0-.14h0c0-.1,0-.15-.1-.18s0,0,0,0-.1-.07-.11-.1A.31.31,0,0,0,339,68l0-.07s0-.06-.07-.08l0,0-.09-.06-.06,0a.21.21,0,0,1-.09-.07.41.41,0,0,1-.05-.09s0-.06-.06-.06h0l0,0s-.06,0-.1,0l-.07,0s-.06,0-.08-.07,0,0,0,0a.49.49,0,0,1-.05-.16.57.57,0,0,1,0-.12.14.14,0,0,0,0-.13l-.07-.06a.18.18,0,0,1-.07-.05s0,0,0,0h0a.06.06,0,0,0,0,0l0,0s0,0,0-.07l-.07-.05-.08,0h-.13s0,0,0-.07v0a.39.39,0,0,1,0-.17.24.24,0,0,0,0-.12.24.24,0,0,1,0-.14.19.19,0,0,1,0-.08.25.25,0,0,0,0-.09v0a.82.82,0,0,0,0-.18.49.49,0,0,1,.05-.17.17.17,0,0,0,0-.07s0,0,0-.08v-.06a.24.24,0,0,1,0-.12.13.13,0,0,0,0-.06.08.08,0,0,1,0-.06.11.11,0,0,0,0,0s0,0,.06,0a.14.14,0,0,0,.07,0l0,0,0,0a.18.18,0,0,1,.08.15,0,0,0,0,1,0,0,.34.34,0,0,0,0,.14h0s0,.06.07.06h.23c.07,0,.09,0,.12.06l.05,0s0,0,0,0a.11.11,0,0,1,0,.05.08.08,0,0,0,0,.07.15.15,0,0,0,.11,0s.06,0,.08.09a.19.19,0,0,0,.05.12l0,0v0h0s0,0,0,0a.05.05,0,0,0,0,0l0,.08s.05.07.08.07,0,0,0,0a.24.24,0,0,0,0-.09.44.44,0,0,1,0,.08s0,0,0,0a.07.07,0,0,0,.06,0h.09s0,0,0,0a.13.13,0,0,0,0,.11s0,0,0,0,0,0,.06-.07,0,0,0,0v0s0,0,0,0l0,0c.07.07.07.07.12.07h0a.09.09,0,0,0,.06,0s0,0,0,0,0,0,0,.07a.33.33,0,0,0,0,.11c0,.06,0,.07,0,.08a.19.19,0,0,0,0,.12.46.46,0,0,1,0,.1c0,.06,0,.09.07.11s0,0,.06,0h.06s0,0,0-.07l.05-.11a.17.17,0,0,0,0-.07s0,0,.05,0,.18,0,.19-.1,0,0,.05,0h0a.06.06,0,0,0,.05,0s0,0,0-.07a.45.45,0,0,0,0-.08s0,0,0,0h0s0,0,.06-.06,0,0,0,0,0,0,0,0h0l0,0s0,0,0,0h.1l.07,0h0a.36.36,0,0,0,.13-.08s0,0,0,0A.09.09,0,0,0,341,66h.07l.11-.08.07-.09,0,0c.05-.06.09-.1.06-.15a0,0,0,0,0,0,0,.16.16,0,0,1,0-.1s0,0,0,0a.15.15,0,0,0,0-.12v0a.24.24,0,0,0,0-.2l0,0a.25.25,0,0,1-.07-.19s0-.06,0-.08a.2.2,0,0,0,0-.13l-.05-.1a.69.69,0,0,1,0-.08l-.06-.13,0,0a.28.28,0,0,0-.07-.09.44.44,0,0,1-.11-.12h0a.77.77,0,0,0-.26-.25,3,3,0,0,1-.38-.26l-.05-.07a1.2,1.2,0,0,1-.17-.2s0,0,0-.07,0-.06,0-.08l-.05,0c-.3-.18-.36-.25-.35-.26a.08.08,0,0,1,0,0,.16.16,0,0,0,0-.09.78.78,0,0,0,0-.14s0-.08,0-.09a0,0,0,0,1,0,0,.19.19,0,0,0,.11,0l.05,0c.05,0,.08-.06.07-.13a.32.32,0,0,1,.07-.19h0l0,0h0a.12.12,0,0,0,.1-.1.09.09,0,0,1,.06-.06l0,0h0l.06,0,.1,0s.08,0,.09,0a.22.22,0,0,0,.12,0c.09,0,.12,0,.13,0a0,0,0,0,0,0,0,.43.43,0,0,0,.2-.06s0,0,0,0h0v0l0,.08s0,0,0,.09a.25.25,0,0,1,0,.07l.05.09,0,.06s0,0,0,.05,0,0,0,0,.07,0,.14,0,.13-.07.11-.14a.51.51,0,0,1,0-.13v0a.43.43,0,0,0,0,0s0,0,0-.06l.14,0,0,0,.1,0h.06a.12.12,0,0,0,.08,0l.05,0s0,0,0,0h.1l.05,0s0,.05.06.05,0,0,0,0l0,0,.07-.12a.29.29,0,0,1,0-.08v0a.45.45,0,0,0,0,.08s0,0,0,0a.3.3,0,0,0,.06.11h.05s0,0,0-.07,0-.06,0-.07.14-.13.17-.14a0,0,0,0,0,0,0,.2.2,0,0,0,.13,0l0,0s0,0,.06-.06a.2.2,0,0,0,.06-.07s0,0,.07,0l0,0a.06.06,0,0,0,0,0,.12.12,0,0,0,.09,0l.11,0,.08,0h0s.05,0,.07-.06v-.06s0,0,0-.06a.28.28,0,0,1,.12,0h0a.31.31,0,0,0,.14-.07l.06,0a.11.11,0,0,0,.07-.1s0-.06,0-.08a.07.07,0,0,0,.06,0,.09.09,0,0,0,.06,0l0,0c.07-.06.11-.1.11-.15v0s0-.05,0-.07a.24.24,0,0,1,.08-.06l.08,0,.07,0a.08.08,0,0,0,.05-.07s-.05,0-.08,0h0v0a.28.28,0,0,0,0-.08.1.1,0,0,0,0-.07s0,0,0,0l0-.05.05-.06a.19.19,0,0,1,0-.06.06.06,0,0,0,0-.06s0,0,0,0a.06.06,0,0,1,0,0s0,0,0-.05a.19.19,0,0,0,0-.09v-.07a.21.21,0,0,1,0-.08s0,0,0-.05h0l.06,0h.07c.07,0,.1,0,.11-.08v0a.09.09,0,0,0,0-.09.08.08,0,0,1,0,0,.19.19,0,0,1,0-.08s0-.07,0-.09v0a.1.1,0,0,0,.05-.06h0a.3.3,0,0,0,0-.14.31.31,0,0,1,0-.08.36.36,0,0,0,0-.15h0c-.05,0-.06,0-.09.05a.13.13,0,0,0,0,.06s0,0,0,0l0,0a.18.18,0,0,1-.09-.08s0,0-.06,0l0,0a.09.09,0,0,0-.05,0l-.05,0,0,0-.09,0,0,0a.1.1,0,0,0,.09-.06.08.08,0,0,0,0-.07s0,0,.05,0h.08s.08,0,.1,0a0,0,0,0,0,0,0,.21.21,0,0,0-.06-.1l0,0s0,0-.05,0h0s.08,0,.06-.1a.23.23,0,0,0-.09-.15l-.05,0s0,0-.08,0a.3.3,0,0,1-.08-.09,0,0,0,0,0,0,0s0,0-.12,0a.28.28,0,0,1-.11,0,.12.12,0,0,1-.05-.08s0-.06-.07-.15,0,0,0,0a.29.29,0,0,0-.07-.08.18.18,0,0,1-.07-.08l0-.05a.29.29,0,0,0-.17-.21l-.14,0-.15,0-.07,0s-.07,0-.08-.06l0,0s0,0,0-.09a.53.53,0,0,1,.12-.2.58.58,0,0,1,.14-.13l0,0s.05,0,.05-.06,0,0,0,0,0,0,0,0l.13-.08s0,0,0,0,.05-.05.07-.05h0a.32.32,0,0,0,.13.05h0s.06,0,.06-.06,0,0,0-.05,0,0,0-.06v0s0,0,0-.07h-.29l0,0-.1,0a.42.42,0,0,1-.19-.08h0a.21.21,0,0,0-.13-.07h0l-.05,0a.16.16,0,0,0-.12.09.24.24,0,0,0,0,.12s0,0,0,0a.14.14,0,0,1-.1,0h-.06c-.05,0-.1,0-.12-.07s0,0,0,0a.06.06,0,0,1,0-.07h0a.19.19,0,0,0,0-.14l0-.06s0-.06-.06-.06h0l0,0-.1,0,0,0a.33.33,0,0,1-.12-.05.2.2,0,0,0-.08,0l-.08,0s0,0,0,0-.06-.08,0-.11,0,0,0-.05,0,0,0,0h0l.07,0,0,0a.11.11,0,0,0,.11,0h.06a.2.2,0,0,0,.08,0s0,0,0,0a.1.1,0,0,0,0-.08.2.2,0,0,1,0-.11v-.05s0,0,0,0h.06a.14.14,0,0,0,.1,0l0,0s0,0,.06-.11a.93.93,0,0,1,.05-.14.08.08,0,0,0,0,0h.05l.07,0a.18.18,0,0,0,.1,0l.05,0s0,0,0,0,0,0,.08.07.05,0,.06,0,0,0,0,0a.67.67,0,0,1-.09.19h-.05v.05a.16.16,0,0,1,0,.07.09.09,0,0,0,.06.1l.06,0,0,0s0,.08,0,.11l0,0s-.05,0-.05,0,0,0,0,0l0,0,.05,0h.05a.26.26,0,0,0,.15-.09.13.13,0,0,0,0-.05l0,0h0s0-.06.06-.07l.06,0,.09-.05.08,0a.65.65,0,0,0,.2,0h0c.05,0,.08,0,.11,0l.09,0,.06,0h0a.1.1,0,0,0,.07,0h.08l0,0h0s.06,0,.06.08a.13.13,0,0,1,0,.06.28.28,0,0,0,0,.1.21.21,0,0,0,0,.07l0,.05a.18.18,0,0,0,0,.12v0a.14.14,0,0,0,0,.06s0,0,.08,0h.05s0,0,0,.06l0,0h0l0,0,0,0,0,0h0a0,0,0,0,0,0,0l0-.05h0s0,0,.05,0h.07a.11.11,0,0,0,.08,0s0,0,0,0a.08.08,0,0,1,0,0,.07.07,0,0,0,0,.06h.16s0,0,.06.06a.26.26,0,0,1,0,.08s0,0,0,0h0s0,0-.06,0v0a.08.08,0,0,0,0,.07l.06,0c.08,0,.12,0,.12,0v0a.24.24,0,0,0,0,.12v0a.18.18,0,0,0,.08.09h.05a.34.34,0,0,0,0,.12.19.19,0,0,0,0,.1v.05a.14.14,0,0,0,0,.07.22.22,0,0,0,.08.15s0,.1,0,.12h0s0,0,0,.05,0,0,0,0a.31.31,0,0,0,.13-.06h0l.07,0a.06.06,0,0,0,.06-.05.29.29,0,0,1,0-.08h0c0,.06.05.08.07.08s0,0,0,0v0l0-.08h0s0,0,0,0h0l.06-.05,0,0a0,0,0,0,0,.05,0l.06,0h.09s.11-.06.11-.08,0,0,0-.09a.17.17,0,0,0,0-.08v0a.67.67,0,0,0-.05-.19.18.18,0,0,0-.05-.07l0,0a1,1,0,0,0-.14-.26,1.37,1.37,0,0,0-.17-.19.76.76,0,0,0-.14-.11l-.18-.16,0,0s-.08-.1-.11-.11l-.06-.05-.1-.07a1.17,1.17,0,0,1-.27-.15l0,0s-.08-.12-.06-.13,0,0,.07,0h0a.31.31,0,0,0,.12-.05l.05,0c.05,0,.09-.06.1-.1l0-.07a.08.08,0,0,0,0,0s0,0,0,0a.12.12,0,0,0,0-.14,1,1,0,0,1-.09-.16v0a.18.18,0,0,1,0-.11c0-.09.05-.14.07-.15h0s0,0,0,0h0a.15.15,0,0,0,.09-.08.17.17,0,0,1,0-.05.38.38,0,0,0,0-.12l0,0,0,0v-.06a.29.29,0,0,0,.12.07h0s.05,0,.07,0,.09.06.12.07h0a.12.12,0,0,0,.1,0h0a.1.1,0,0,0,.08,0l.09,0a37.61,37.61,0,0,0-2.82-4.67h0a38.57,38.57,0,0,0-5.15-5.92.16.16,0,0,0-.09,0h-.12s0,0,0,0l0,0h0l0,0a.62.62,0,0,0-.18-.08h0s-.12,0-.12,0h0l-.11,0h-.16a.67.67,0,0,0-.23,0l-.07,0c-.05,0-.07,0-.1,0a1.67,1.67,0,0,0-.3-.08l-.15-.05-.24-.07h0a.1.1,0,0,0,0,.05.12.12,0,0,0,.05.13l.08.06s0,0,0,0v0a.11.11,0,0,0,0,.08h-.06l-.07,0-.13,0a4.52,4.52,0,0,1-.5-.18l-.09,0s-.09,0-.09,0a.11.11,0,0,0-.08-.1h-.06v0s0-.07,0-.09h0a.31.31,0,0,0-.13,0s0,0,0,0a.06.06,0,0,0,0-.05l-.06,0a.09.09,0,0,0-.06,0h-.06a.27.27,0,0,0-.2-.09.65.65,0,0,1-.25-.06h0a.11.11,0,0,0-.08,0h0l-.09,0h-.07s0,0,0,0,0,0,0,0-.08,0-.1,0,0,0,0,0h-.08s0,0-.05,0,0,0-.06,0h0a.17.17,0,0,1-.14,0h0l-.09,0-.06,0h0s0,0-.11,0l-.09,0s-.06,0-.07,0,0,0,0,.06l.06,0,.07,0a.17.17,0,0,1,.09.05l0,0a.11.11,0,0,0,.05,0h0a.14.14,0,0,0-.11,0h-.83l-.1,0h-.08a.42.42,0,0,0-.14,0l-.07,0h0a.05.05,0,0,0,0-.05h-.06l-.1,0-.24,0h-.67a1.75,1.75,0,0,0-.24,0h0c-.06,0-.09,0-.09,0s0,0,0,0h0l0,0a.09.09,0,0,0-.05-.09l-.08,0-.06,0a.13.13,0,0,0-.08,0h0s0,0,0,0l0,0h0l-.15,0h-.08a1,1,0,0,1-.17-.06l.09,0,.14,0h0a0,0,0,0,0,.06,0s.07,0,.07-.08a.05.05,0,0,0,0,0,1.57,1.57,0,0,0-.3,0h-.05a.09.09,0,0,0-.07,0,.05.05,0,0,1,0,0s0,0,0,0a0,0,0,0,0,0,0l.07,0,0,0h0l0,0H330a.41.41,0,0,0-.16,0h0s-.06,0-.06.06a.05.05,0,0,0,0,0,.3.3,0,0,0,.13,0h.13a.1.1,0,0,1-.08.06h-.33a.06.06,0,0,0-.05,0,.11.11,0,0,1-.09,0,.17.17,0,0,1-.1,0h-.21s-.05.06-.05.07,0,.05,0,.05h-.07a.2.2,0,0,1,0-.08h0l0,0h.09s0,0,0,0l0,0s0,0,0,0h0a.16.16,0,0,0,.1,0h0a.16.16,0,0,0,.11-.07v0l0,0s0,0,.08,0,.07,0,.08-.06,0,0,0,0h0s0,0,0,0l0,0h0l.09,0,.1,0,.07,0,0,0h0s0,0,.06,0a.14.14,0,0,0,.09-.08,0,0,0,0,1,0,0,.08.08,0,0,0,0,0l0,0,0,0,0,0a0,0,0,0,1,0,0,.09.09,0,0,0,0-.05l0,0a.07.07,0,0,0-.06,0H330s0,0,0-.06l-.08,0-.06,0c-.05-.06-.07-.07-.08-.07h0a0,0,0,0,0,0,0,.1.1,0,0,0,0,.05h0a.31.31,0,0,1-.1,0l0,0s0,0-.08,0h-.83l-.15,0h-.14s-.08,0-.08,0v0a0,0,0,0,1,0,0h-.2l-.07,0h0l0,0s.05,0,.05-.06,0,0,0,0a.26.26,0,0,0-.19-.08h-.34s0,0-.06,0,.15-.06.15-.09,0,0,0,0h-.19s0,0-.1,0h-.07l-.24,0a.74.74,0,0,0-.19,0l-.09,0h-.11a.06.06,0,0,0-.06,0,.3.3,0,0,1-.06.11.2.2,0,0,0,0,.08s0,0,0,0l0,0h-.13a.27.27,0,0,1-.09,0h-.17a.06.06,0,0,0,0,0l0,0a0,0,0,0,0,0,0s0,0-.06,0a.17.17,0,0,0-.09.05H326s0,0-.1,0l-.11,0h0s.06,0,.05-.07a0,0,0,0,0,0,0,.14.14,0,0,0-.09,0h-.29l-.09,0-.06,0-.05,0h-.05l-.07,0h0l-.11.06h0l0,0-.15,0-.05,0a1.66,1.66,0,0,1-.22,0h-.13a.41.41,0,0,0-.16,0l-.18.07h-.17a.17.17,0,0,0-.14,0c-.05,0-.06,0-.08.05a.09.09,0,0,1-.06.06,1.15,1.15,0,0,1-.2.05h0s-.1,0-.1.07,0,0,0,0l.05,0h.13l.07,0h.22l.06,0,.06,0h0l-.05,0a1,1,0,0,1-.15,0l-.11,0-.13,0h-.2l-.45,0a.74.74,0,0,0-.18,0l-.12,0c-.05,0-.13.05-.13.09s0,0,0,0h.17s0,0,0,0l0,.05a.11.11,0,0,0,0,0c0,.05,0,.07.08.09a.22.22,0,0,0,.13,0h.21a.2.2,0,0,1,.11.06l0,0a.16.16,0,0,0,.13,0s0,0,0,0h0s0,0-.08,0h-.05l-.17,0a.36.36,0,0,0-.19-.09l-.12,0-.18-.05-.08,0-.1,0h-.05a.17.17,0,0,0-.1,0h-.05l-.08,0h0l0,0h0s.05,0,.1,0h.1s0,0,.06,0a.06.06,0,0,0,0,0l0,0s0,0-.09,0h0a.08.08,0,0,0-.07,0l-.05,0,0,0s0,0,0,0H322a.1.1,0,0,0-.07,0c-.05,0-.08,0-.1.08l-.05.07,0,0H322s0,0,0,0h.22a.4.4,0,0,1-.18,0l-.06,0-.11,0h-.05c-.12,0-.14,0-.14.06s0,0,0,0v0a.19.19,0,0,0,.1,0l.07,0a.14.14,0,0,0,.09,0l0,0h.31l.05,0h0a.22.22,0,0,0-.13,0l-.14,0H322l-.09,0h-.17a.66.66,0,0,1-.15,0s0,0,0,0h0s0,0-.05-.06-.07,0-.07,0h0V42.7s0,0,0-.07v0c0-.06,0-.07-.08-.1l0,0a.15.15,0,0,0-.09,0h-.08s-.05,0-.06,0,0,0,.05.07l.06,0,.08,0,.05,0,0,0-.05,0c-.06,0-.07,0-.1,0a.35.35,0,0,0-.13,0s0,0,0,.06v0a.11.11,0,0,1,0,0,0,0,0,0,0,0,0s0,0,.1,0h0a.08.08,0,0,1,.08,0l0,0a.13.13,0,0,0,.11.06l.08,0,.08,0a.11.11,0,0,1,0,.11l0,0s0,0,0,.08v0s0,.06.05.12l.07.06s0,0,0,0l0,0s0,0,0,.06,0,0,0,0h0l.07,0a.08.08,0,0,1,.07,0,.13.13,0,0,0,.08,0h0s0,0,.09,0h.23l-.23.06h-.09s-.05,0-.06,0h0s0,0,0,0,0,0,0,.09l.06.1s0,.06.07.06a.21.21,0,0,0,.08,0h0s0,0,0,0,0,.1,0,.13h0s-.05,0,0,.08,0,0,0,.05,0,0,0,.07h0a.2.2,0,0,0-.11,0s0,0,0,0-.07,0-.08.08l0,0s0,0,0,0l-.06,0-.07,0h-.42a.27.27,0,0,1-.16,0h0l.27,0h.13a.08.08,0,0,0,.07,0,.19.19,0,0,0,0-.08v0a.29.29,0,0,1,.08-.07.44.44,0,0,0,.12-.13.1.1,0,0,0,0-.09s0-.07-.05-.08h0v0h0s.07-.06.06-.08,0,0,0,0l-.11,0-.26-.11s0,0,0,0a.1.1,0,0,0,0-.06.13.13,0,0,1,0,0,.2.2,0,0,1,0-.08.11.11,0,0,1,0-.05.18.18,0,0,0-.05-.08.09.09,0,0,0-.07,0s0,0,0,0h0a0,0,0,0,0,0,0,.16.16,0,0,0-.05-.13s0,0,0,0,0,0-.09-.07l-.08,0-.07,0a.19.19,0,0,1-.11-.06.12.12,0,0,0,0,0l0,0s0,0,0-.12v0c0-.08-.07-.17-.13-.2a.53.53,0,0,0-.19-.06h-.08a.12.12,0,0,1-.1,0,1,1,0,0,0-.17,0c.11,0,.13,0,.13-.05v0h-.06l-.07,0,0,0s0,0-.06,0a.21.21,0,0,0-.19,0l-.05,0s-.06,0-.06.05a.09.09,0,0,0,0,.06l0,0h-.09s0,0,0,0a.32.32,0,0,0,0,.1v.07s0,0,0,.08v0c0,.05,0,.06,0,.08l0,0-.07.06a.32.32,0,0,0-.12.09l-.05,0s0,0,0,0,0,0,0,.05l0,0c.05,0,.07,0,.11,0h.05v0l0,0s0,0,0,.07l0,0a.12.12,0,0,0,.08,0h-.09a.05.05,0,0,0-.05,0,.06.06,0,0,0,0,.06.14.14,0,0,0,.12.1h.09l-.06.09.07,0a.26.26,0,0,1,.14-.05h0a.14.14,0,0,1,.08.09h0s0,0,.1,0l0,0,.05,0a.13.13,0,0,0,.08,0h.08s0,0,0,0,0,0,0,.06a1.29,1.29,0,0,0-.06.12,1.28,1.28,0,0,1-.27-.11l0,0a.19.19,0,0,0-.19-.1h0c-.11,0-.13,0-.15,0h-.2a.63.63,0,0,1-.2,0l-.05,0a.33.33,0,0,0-.12-.06l-.11,0a.29.29,0,0,0-.11,0l-.25-.05h0l-.09,0-.08,0h0a.26.26,0,0,1-.2,0l-.09,0a.12.12,0,0,0-.07,0H318a.1.1,0,0,0-.07,0l0,0h0v0s0,0-.05-.07l0,0-.09,0-.06,0-.07,0-.18,0h0s0,0-.07,0h0c-.05,0-.1.06-.1.09s0,0,.05,0h0l.19.07.11,0h.05a.11.11,0,0,1,.05,0l0,0h.13l0,0h0a.16.16,0,0,0,.11.08h0l.11,0a.19.19,0,0,1,0,.09h-.16s0,0,0,0,0,.05,0,.07h0l0,0h-.16s0,0,0,0h0l0,0h0a0,0,0,0,0,0-.05s0,0,0,0h0l0,0v0s0-.11-.09-.11h-.09s0,0,0,0a.35.35,0,0,1,.08.1h-.08s0,0,0,0l-.05,0s-.05,0-.08,0h0a.1.1,0,0,0-.09,0,.09.09,0,0,0,0,.08h-.35l-.12,0h-.09s0,0,0,.06,0,0,0,0h0s0,0-.05,0h-.18v0s0-.07,0-.09,0,0,0,0h0s.06,0,.08,0,0,0,0,0,0,0-.1,0h-.05l-.11,0-.08,0H316a.14.14,0,0,0-.09,0s-.1.07-.1.1v0h0v0s0,0,0,0h0l0,0h-.05l-.12,0h-.07a.17.17,0,0,0-.12.05l-.12.08,0,0a.11.11,0,0,1-.06,0H315a.08.08,0,0,0-.05.07l-.07,0h-.12a.08.08,0,0,0,0,0s0,.05,0,.07,0,.07,0,.08v0s0,0-.06,0l-.11,0h-.14l-.06,0a.14.14,0,0,0-.09,0h0s0,0,0,0l0,0,0,0s-.05-.06-.09-.05l-.07,0h0a.07.07,0,0,1-.05,0l.11-.06h0a.08.08,0,0,1,.07,0h0l.08,0s.08,0,.09,0v0h0l-.1-.07,0,0-.1-.08a.25.25,0,0,0-.12-.07h0a.35.35,0,0,0-.12,0l-.21,0h-.13a.13.13,0,0,0-.07,0l0,0h0s0,0,0,.07,0,0,.09,0l.1,0s0,0,0,0a.43.43,0,0,1,0,.12l-.05.16h0a0,0,0,0,0,0,0s0,0,.13.06.25.11.25.11a.11.11,0,0,1,0,0,.37.37,0,0,0-.06.15l0,0h-.14c0-.07-.07-.1-.11-.11h-.13l-.11,0h0s0,0-.08,0l0,0a.45.45,0,0,1-.14.07l-.14,0h0l-.08,0,0,0a.61.61,0,0,1-.12.09h0a.06.06,0,0,0-.05,0s0,0,.06.06a.32.32,0,0,1,.17.14.08.08,0,0,1,0,0s0,0,0,0a.38.38,0,0,1-.15,0h0l-.08,0-.11,0h-.24a.18.18,0,0,1-.1,0l-.06,0-.1-.05h0S312,45,311.91,45a.05.05,0,0,0,0,0,.12.12,0,0,0-.05,0l0,0h-.07s0,0,0,0,.07.07.18.11a.23.23,0,0,1,.09.07s0,.06.08,0a.15.15,0,0,0,.09,0h0l0,0,0,0,0,0h-.08s0,0-.05,0h-.24a.44.44,0,0,1-.15-.08s0,0,0,0a.12.12,0,0,0-.08,0h-.11a.12.12,0,0,1-.1,0l0,0s0,0,0,0a.22.22,0,0,0-.06-.13h0l0,0,0,0a.05.05,0,0,0,0,0s0,0,0,0,.09-.11.08-.14a.08.08,0,0,0-.06-.08l-.09,0-.06,0,0,0a.29.29,0,0,0-.1,0h-.13l0,0a.08.08,0,0,0,0,0l-.14-.1.11,0h.05a.25.25,0,0,0,.16,0h.22a.12.12,0,0,1,.08,0l0,0a.33.33,0,0,0,.13,0h.27l.11,0a1.8,1.8,0,0,0,.36.06h.05a.31.31,0,0,0,.16,0,.61.61,0,0,1,.19,0h.13l0,0a.47.47,0,0,0,.17-.09l.06,0a.57.57,0,0,0,.08-.08.31.31,0,0,0,0-.13s0,0,0,0,0,0,0,0v0s0-.1-.08-.11h-.17l-.1,0-.06,0-.05,0,0,0h0l-.06,0-.07,0h-.07l-.09,0-.1,0h0l-.12-.07-.15-.07c-.06,0-.41-.15-.47-.16h-.4l0,0-.05,0-.06,0-.08.06h0s0-.07-.06-.08h-.15s0,0,0,0,.05,0,.05-.06,0,0-.07,0h0l0,0a.3.3,0,0,0-.11,0h0l-.06,0-.13.07s0,0-.07,0h-.06a.46.46,0,0,0-.16,0l0,0s-.06,0-.07,0l-.08,0h0l.14-.07.08,0h.13s0,0,0,0a.08.08,0,0,0-.05-.05.33.33,0,0,0-.15,0h-.12v0s0,0-.11,0l-.11,0a.11.11,0,0,0-.08,0h0a.08.08,0,0,0-.07,0,.17.17,0,0,1-.08.09h0l.07-.09,0,0a.07.07,0,0,0,.06,0,.08.08,0,0,0,0,0l-.07,0h0a1.15,1.15,0,0,0-.19,0h0s0,0-.05,0,0,0,0,0,0,.07,0,.08,0,0-.08,0h0v0s0-.07,0-.09h0s0,0,0,0,0,0-.07,0-.25.21-.27.23h0s.08-.15.12-.16.09,0,.1-.08,0-.06,0-.08a.06.06,0,0,0-.06,0l0,0a.28.28,0,0,0-.12,0h0l0,0h0s0,0,0,0a.05.05,0,0,0,0,0l0,0a.28.28,0,0,0,0,.08.3.3,0,0,1,0,.08.09.09,0,0,0,0,0h0a0,0,0,0,0-.05,0h0l-.08,0h0s0,0,0,0,0,0,0,0h-.08l-.14,0h-.26s0,0,0,0,0,0,.08.05a.28.28,0,0,0,.11,0,0,0,0,0,1,0,0l0,0v0h-.32l-.05,0h-.05l0,0s0,0,0,0,0,0,0,0a.23.23,0,0,1-.1.13h0s0,0-.05.05a.29.29,0,0,1,0-.09s0-.08,0-.09h0a0,0,0,0,0-.05,0h-.15a.13.13,0,0,0-.08,0,.17.17,0,0,0-.06.06l-.06.07a.19.19,0,0,0-.08.07h0a.07.07,0,0,0,0,.06s0,.05,0,.07,0,0,0,0h0v0a.89.89,0,0,0-.05-.1h0s0,0,0,0h-.05l-.08,0s-.08,0-.09.06a.1.1,0,0,0,0,.1h0a0,0,0,0,1,0,0v0h0l-.05.05v0s0-.09-.06-.09h0s0,0-.07,0a.05.05,0,0,0,0,0v-.11a.07.07,0,0,0,0,0s0,0-.07,0l-.05,0a.18.18,0,0,0-.09,0c0,.05-.05.05-.05.05h0v0s0-.06,0-.06,0,0-.05.06a.41.41,0,0,1,0,.09c0,.06-.06.11-.05.14h-.05L305,44h0s0,.08,0,.1,0,0,.05,0l.23-.08.1,0,.09,0,.09,0,.06,0a.21.21,0,0,1,0,.1.2.2,0,0,0,0,.08l0,.06s0,0,0,0,0,.08-.09.1l-.09,0-.07,0,0,0-.12.1,0,0a.19.19,0,0,0-.07.08.43.43,0,0,1,0,0,0,0,0,0,0,0,0h0l0,0s0,0,0,0a.13.13,0,0,0,0,.06.13.13,0,0,1,0,.06l0,.06,0,0a.16.16,0,0,1,0,.06s0,0,0,0l0,0h0v0h0s0,0,0,0l0,0h-.12s-.05,0-.06,0,0,0,0,0h.06s0,0,0,0v0s0,0,0,0h0a.17.17,0,0,0-.17.09l-.09.12h0s-.05,0-.08,0h0s0,0,0,0a.19.19,0,0,0,0,.09h-.1l0,0s0,0,0,0,0,0-.05,0l-.05,0s0,.06,0,.08v0h0a.06.06,0,0,1-.05,0l0,0s0,0,0,0,0,0,0,.05,0,.13,0,.15h0v0a.09.09,0,0,0,0,0,0,0,0,0,0,0,0h0l-.08,0,0,0s0,0,0,0a0,0,0,0,0,0,0s0,0,0,0,0,0,0,0a.06.06,0,0,0,0,0l-.12,0a.06.06,0,0,0-.05,0h0l-.07,0,0,0v0h0s0,0,0,0l0,0a.28.28,0,0,1-.11,0l-.05,0h0v0s0,0-.05,0a0,0,0,0,0,0,0v.16l0,.05a.23.23,0,0,1,0,.19l-.05,0h0a.27.27,0,0,0,0,.12.11.11,0,0,0,0,0s0,0,0,0l0,0a.08.08,0,0,0,0,.08v0s0,0,.06,0h0l0,0s0,.05,0,.07v0s0,0,0,0l0,0a.26.26,0,0,0,0,.08s0,0,.06,0h0l.08,0,0,0s0,0,0,0h0s-.05,0-.07,0a.29.29,0,0,0-.05.21l0,0h.05s0,0,0,0a.31.31,0,0,0,.11.08h0l.08,0c.08,0,.11,0,.11,0h0a0,0,0,0,0,.05,0h0a1.39,1.39,0,0,1,.19-.06h.15a.16.16,0,0,0,.09-.05l.09-.07.06,0,0,0a1.14,1.14,0,0,1,.14-.12h.09l0,0s0,0,.06-.06l.05-.11c0,.06,0,.07,0,.07h.06s0,0,0,0h0a.06.06,0,0,1,0,0,.14.14,0,0,0,.06.13h0c0,.07,0,.14,0,.17s0,0,0,0l.05.06a.11.11,0,0,1,0,.06.16.16,0,0,0,.05.1l0,0a.23.23,0,0,0,.09.11,1.05,1.05,0,0,1,.15.15l0,0s0,0,0,.07,0,0,0,0,0,0,0,0h-.07a.09.09,0,0,0-.08,0,.28.28,0,0,0-.05.08h-.09v0h-.12a.07.07,0,0,0-.06,0v0a.18.18,0,0,0,0,.1s0,.06.06.06l0,0a.11.11,0,0,0,0,.06h.17v0h0c-.11,0-.17,0-.17.08s0,0,0,0a.64.64,0,0,1,.1,0,.09.09,0,0,0,.05,0l.06,0,.07,0c.06,0,.1,0,.11-.06a0,0,0,0,1,0,0s.05,0,0-.06,0,0,0,0l-.05,0h0s.16-.1.15-.16l.06,0,0,0s.05,0,.08,0h.05a.56.56,0,0,0,.17,0h0s0,0,.05,0,0,0,0,0a.14.14,0,0,1,0-.07.06.06,0,0,0,0,0s0,0,.05-.05h0l0,0h.18a1.55,1.55,0,0,1,.18,0h.05a0,0,0,0,0,0,0v0l0,0,0,0h0l.1-.11a1.12,1.12,0,0,0,.05-.13l0,0a.26.26,0,0,0,0-.1s0,0,0,0,0,0-.12.11h0a.74.74,0,0,1,0-.21l0-.09,0-.06v0a.47.47,0,0,0,0-.16.2.2,0,0,1,0,0h0a.21.21,0,0,0,.12,0,.61.61,0,0,0,.16-.09l.12,0h0s.05,0,.05-.06,0-.09.05-.14h0l0,0s0,0,0-.06v0a.17.17,0,0,0-.07-.13h0l-.08-.06v0s0,0,0,0h-.07l-.16,0h-.05l0,0s0,0-.05,0l0-.11v0a.59.59,0,0,1,0-.13h.08a.07.07,0,0,0,0-.1l0,0h0a.21.21,0,0,0,0-.06h0l0,0a0,0,0,0,0,0,0l0,0h0l.07,0c.05,0,.08,0,.08-.06s0-.07,0-.08h0l.05,0,.05,0,0,0,0,0,.07,0h0l.13,0,.09,0,.08,0,.06,0a.24.24,0,0,0,.09-.06l0,0a.2.2,0,0,0,.08-.08l0-.05s0,0,0-.07a.17.17,0,0,0-.06-.08l0,0s0,0,0,0l.05,0,.26-.18.1,0a1,1,0,0,1,.29,0,.06.06,0,0,1,.06,0,.14.14,0,0,0,.09,0h.07l.07,0h0l.07.1a.15.15,0,0,1,0,.06l0,0v0h0a.28.28,0,0,1-.1-.05s0,0-.05,0a.06.06,0,0,0-.06,0,.08.08,0,0,0,0,.05s0,0,0,0l-.22.16-.09.07h0s0,0,0,0,0,0,0,0l-.17.07-.11.1-.08.06h-.07s-.06,0-.07,0a.24.24,0,0,0,0,.07.66.66,0,0,1,0,.11l-.06.05s0,0,0,0v0h0s.06,0,.07.07a.08.08,0,0,0,0,0s0,0,0,.05,0,.07,0,.11a.09.09,0,0,1,0,0s0,0,0,.06l0,0v0s0,.07,0,.1h0a.31.31,0,0,0,0,.16h0l.15,0h0l.08,0h0s-.05,0,0,.06,0,0,.22,0,.26,0,.27,0,0,0,.06,0h.23l.11,0,.06,0h.17l.1,0h.71l.1.09s.16,0,.17,0h.1l-.14,0-.06,0-.07,0h-.14s-.08.05-.09.08,0,0,0,0h-.31l-.12-.06a.38.38,0,0,0-.16,0h0l-.15.06a.19.19,0,0,1-.1,0h0a.35.35,0,0,0-.17,0l0,0-.08,0h-.06s-.06,0-.07,0a.2.2,0,0,0,0,.11.15.15,0,0,0-.08-.05h0l0,0a.15.15,0,0,1-.07.07h0a.44.44,0,0,1-.15.08h0s-.07,0-.08,0,0,.06,0,.08l0,0h0s0,.07,0,.08h0l.07-.05,0,0,0,0,.06,0,.09,0h0c.05-.05.05-.07.05-.07s0-.05,0-.08l.08,0a.23.23,0,0,1,.11.06.2.2,0,0,0,.11.06h0l0,0h0a.08.08,0,0,1,0,0s0,.06,0,.07a.17.17,0,0,0,0,.1.39.39,0,0,1,.05.13.32.32,0,0,1,0,.09l-.11,0h0l-.13,0,0-.05,0,0a.48.48,0,0,0-.16-.12.24.24,0,0,0-.16,0l-.2.14h0s0,.07,0,.08a.11.11,0,0,1,0,.06l0,0a.24.24,0,0,0,0,.13,1.15,1.15,0,0,0,0,.19v0s0,0,0,.1v.07s0,.07,0,.09-.08.09-.11.09h-.15c-.05,0-.06.09-.06.12a.16.16,0,0,1-.06.08h0l-.07,0h0a.3.3,0,0,1-.12,0v0a.09.09,0,0,0,0-.06l0,0-.05,0h-.15a.77.77,0,0,0-.27.07.54.54,0,0,1-.17,0l-.12,0-.26.1h0l-.09,0-.09,0-.16,0s0,0,0,0h0v0l-.09,0-.05-.09s0,0,0,0-.06-.07-.09-.07-.05,0-.1.06l-.08,0h0a.17.17,0,0,0-.12,0l-.13.08h0s0,0-.05,0h0l-.08,0a0,0,0,0,0,0,0h-.17l.11-.08h0l0-.11h0l-.14,0-.15,0s0-.09,0-.12l0,0s-.06,0-.07-.08a.08.08,0,0,0,0,0s0,0,0,0a.45.45,0,0,1,.1-.13.36.36,0,0,0,.11-.14l0,0s0,0,0-.06a.18.18,0,0,1,0-.06.39.39,0,0,0,0-.06s0,0,0-.06,0,0,0-.07l0,0s.05,0,.05-.1v-.06s0-.07,0-.08h-.05l-.06,0a.19.19,0,0,0-.13.07l-.06.07c-.06,0-.08.07-.11.07h-.09a.17.17,0,0,0-.11,0l-.08.06c-.06,0-.1,0-.11.12a.88.88,0,0,0,0,.23v0a.43.43,0,0,1,0,.12v0a.26.26,0,0,0,.06.17s0,0,0,.07v0s0,.06,0,.08,0,0,.07,0l.05,0h0v0s0,0,0,.06h0l0,0s0,0,0,0l0,0s.05,0,.05,0,0,0-.05,0h0a.22.22,0,0,0-.1.11h-.09a.09.09,0,0,0,0,0,0,0,0,0,1,0,0,.11.11,0,0,0-.11,0h-.07a.19.19,0,0,0-.1.05l0,.06,0,0h-.3s0,0-.09,0l-.08,0a.09.09,0,0,0-.09.08.09.09,0,0,1-.06.06.08.08,0,0,1,0,0h0v0s-.05,0-.06.08a.15.15,0,0,0,0,.08.59.59,0,0,1,0,.08s0,0-.06.06l-.05.05-.06,0a.13.13,0,0,0-.06.05l0,0L302,50l-.08,0-.11.05-.05,0a.19.19,0,0,1-.09.05h-.07a.11.11,0,0,0-.08,0h-.05s-.05,0-.05.06a.19.19,0,0,1,0,.08.23.23,0,0,1,0,.07s-.08.12-.11.14a.69.69,0,0,1-.15.07.43.43,0,0,0-.21.06l0,0s-.05,0,0,.08a0,0,0,0,0,0,0h0s0,0,0,0h-.37s0,0,0,0v0s0,0,0,0l0,0a.23.23,0,0,0-.09,0h0l-.05,0,0,0a0,0,0,0,0,0,0h0s0,0,0,.11a.25.25,0,0,0,.07.09h0a.2.2,0,0,1,0,.09s0,0,0,0a.06.06,0,0,0,0,.06v0a.14.14,0,0,1-.09,0H300l-.07,0,0,0h0s0,0-.1-.06h-.14l-.08,0-.19,0h-.08s-.09,0-.1,0a0,0,0,0,0,0,0,.18.18,0,0,0,.11.08.07.07,0,0,0,0,.07.11.11,0,0,1,0,.05s0,.07.07.07a.11.11,0,0,0,.06,0h.13s0,0,.09,0l.1,0,.05,0s0,0,0,0a.15.15,0,0,0,.08,0l.05,0h0s0,0,0,0,0,.06,0,.09l.08,0s0,0,0,0a.08.08,0,0,1,0,.05.08.08,0,0,0,0,.12l0,0a.21.21,0,0,0,.1.06h0c.07,0,.15.06.13.11a.29.29,0,0,0,0,.15s0,0,0,0a.16.16,0,0,1,0,.1.51.51,0,0,1,0,.1l0,.12v0a.41.41,0,0,1,0,.16,1.26,1.26,0,0,1-.07.16s0,0,0,.05h0s0,.07-.11.07H300a.13.13,0,0,1-.12,0l-.05,0-.06,0a.06.06,0,0,0-.05,0s0,0,0,0l-.08,0h-.08a.28.28,0,0,0-.16,0h-.15l-.19,0h-.4l-.13,0h-.19s0,0,0,0l-.1,0h-.13L298,53c-.08,0-.1.08-.09.12h-.15a.3.3,0,0,0-.14.07h0a.08.08,0,0,0,0,.11.46.46,0,0,0,.07.07l0,0h0a.08.08,0,0,0,0,.08s0,.05,0,.09a.25.25,0,0,0,0,.15.31.31,0,0,0,0,.11s0,.09,0,.14v0a.27.27,0,0,1,0,.19l0,.11a.5.5,0,0,1-.05.13l-.06.1-.06.1s0,0,0,0a.49.49,0,0,0,0,.11,1,1,0,0,0,0,.17h0a.54.54,0,0,0,.07.09.1.1,0,0,0,.07,0h.05v0s0,0,0,.09a.25.25,0,0,0,0,.07s0,0,0,.13a.62.62,0,0,0,0,.12v.07l0,0,0,0h0s0,0,0,0a.11.11,0,0,0,.07,0l0,0,.09,0h0a.15.15,0,0,0,.08,0h0a.12.12,0,0,0,.11,0l0,0,.06,0h0l0,0s0,0,.1,0,.12,0,.14.08a.08.08,0,0,1,0,.07s0,0,0,0a.17.17,0,0,0,.08.13.19.19,0,0,1,.09.1.1.1,0,0,0,.07,0h.06a.37.37,0,0,0,.11,0l.05,0s0,0,.05,0l0,0s0,0,0,0l0,0,.07,0h.3a.45.45,0,0,1,.18,0l.1,0a.22.22,0,0,0,.16,0h.08a.12.12,0,0,0,.08,0l0,0a.16.16,0,0,0,.08-.1.14.14,0,0,1,.07-.1l0,0a.24.24,0,0,1,.11,0,.2.2,0,0,1,.11,0h0s0-.05,0-.06a.17.17,0,0,0,0-.07s0-.07,0-.11l.05-.05,0-.06.05,0a.39.39,0,0,0,.11-.06.1.1,0,0,1,.05,0s.05,0,.05,0l0,0a.2.2,0,0,0-.09,0s-.05,0-.06-.05a.14.14,0,0,0,0-.07.13.13,0,0,1,0-.12l.19-.18c.09-.09.19-.18.21-.21a.08.08,0,0,0,0-.09s0,0,0,0,0,0,.14-.06h0l.21-.07,0,0,.06,0a.86.86,0,0,0,.19-.11.25.25,0,0,1,.09,0c.06,0,.12,0,.1-.1a1,1,0,0,1,0-.18h0s0-.06,0-.08a.11.11,0,0,1,0-.11s0,0,0,0,0-.05.13-.09l.05,0h.14l.21,0,.1,0,.12,0,.09,0h.11a.25.25,0,0,0,.12,0h0a.2.2,0,0,0,.12-.06h.14l0,0s0,0,.08-.06l.06-.08a.13.13,0,0,1,.05-.07l0-.05a.26.26,0,0,1,.09-.07l.07,0a.29.29,0,0,1,.1,0l.07,0h.05s0,0,0,0l0,0,.05.06a.25.25,0,0,0,.11,0h0s0,0,0,.07v.06s0,.08.05.11l0,0h0v0s0,0,0,0,0,0-.05,0h0s-.06,0-.06,0,0,.05.06.06h.12a.13.13,0,0,0,0-.07v0h0l0,0,.05,0h0s0,0,0,.05,0,0,0,0,0,.05,0,.06h.18v0a.08.08,0,0,0,0,0,.05.05,0,0,0,0,0l0,0a0,0,0,0,0,.05,0h0a.43.43,0,0,0,0,.05.15.15,0,0,0,0,.08l0,0a.33.33,0,0,0,.1.06l.05,0a.29.29,0,0,0,.11,0h.09s0,0,0,0a.15.15,0,0,1,.08,0l.05,0h0a.1.1,0,0,0,0,0s0,.07.05.07h0a.21.21,0,0,1,.14,0l0,0s0,0,0,0h.05a.23.23,0,0,1,.14,0s0,.06,0,.09v0a.08.08,0,0,0,.09.06l0,0a0,0,0,0,0,0,0h.11s0,0,0,.06a.45.45,0,0,0,.05.1,0,0,0,0,1,0,0h0l0,.05a.08.08,0,0,1,0,0s0,0,0,.06l0,.05v0h0s0,0,0,0h0s-.05,0-.05.05v.07s0,0,0,0h-.05l-.13,0h0a.14.14,0,0,1-.09,0,.12.12,0,0,0-.13,0l-.07,0h-.17a.08.08,0,0,1-.07,0l0,0s0,0-.09,0h0a.14.14,0,0,0-.12,0l0,0a0,0,0,0,0,0,0,0,0,0,0,0,0,0l0,0h0l0,0s-.06,0-.06.08h0s0,.08,0,.1l0,0a.07.07,0,0,0,.05,0h.05l.05,0,.12,0,.07,0,.06.05s.07,0,.1,0h0l0,0s0,0,0,.06,0,.07.08.08h0l.1,0a.11.11,0,0,0,.07,0v0a.24.24,0,0,0,.06-.11h0s0-.05,0-.11a0,0,0,0,1,0,0c0-.05,0-.06,0-.1l.06-.08s0,0,0,0l0,0,0,0h0a0,0,0,0,0,.05,0h0l0,0s0,0,0,0a.06.06,0,0,0,0,0l0,0,0,0s0,0,0,0h0s0,0,0,0v0a.08.08,0,0,1,0-.05s0,0,0-.06l0,0s0,0,0,0h.06a.09.09,0,0,0,.06,0,0,0,0,0,1,0,0s0,0,0-.08a.08.08,0,0,1,0-.06s0,0,0-.08l-.09,0s0,0,0,0l-.05,0s0,0,0,0a.11.11,0,0,0,0,0l0,0h0a.66.66,0,0,0,.06-.12.15.15,0,0,1,0-.06,0,0,0,0,1,0,0h0a0,0,0,0,1,0,0s0,.06.06.06l.06,0h.11s0,0,0,0,.08.15.14.15h0s.06-.06,0-.14a.26.26,0,0,0-.1-.16l0,0a.28.28,0,0,0-.11-.08h0l-.06,0-.06,0-.07,0,0,0a.16.16,0,0,0-.12,0,.52.52,0,0,1-.2-.07l-.06-.07h0s.07,0,.08,0a.08.08,0,0,0,0,0s0-.08-.09-.08h-.27a.08.08,0,0,1-.06,0l-.09-.06-.1-.07s0,0-.05-.05a.29.29,0,0,1-.09-.1l0,0c0-.05-.06-.08-.06-.13a.13.13,0,0,1,0,0s0,0,0-.07a.56.56,0,0,0-.2-.14.34.34,0,0,1-.17-.1.15.15,0,0,0-.07,0s0,0-.05,0a.13.13,0,0,0,0-.06s0,0,0-.07h0l0,0s0,0,0-.07a.08.08,0,0,0,0-.06h0l0,0s0,0,0-.05l0,0H305a.37.37,0,0,0,.14-.07h0l0,0h0s0,0,0,0,0,0,0,0,0,.06.09.09,0,0,0,.07v.07s0,.07,0,.07h0s.05,0,.07-.08v0a.11.11,0,0,0,.06.08.16.16,0,0,0,.09,0h0s0,0,0,0v0h0s0,0,0,0l.08.1a.06.06,0,0,0,0,0,.09.09,0,0,1,0,0,0,0,0,0,0,0,.05.07.07,0,0,0,.06,0,.12.12,0,0,1,.07,0h0a.2.2,0,0,1,.11.07v0a.27.27,0,0,0,0,.07h0a.25.25,0,0,0,.13.09h0c.05,0,.06,0,.06,0s0,0,0,0,0,0,0,0,0,0,.07,0h.28a.29.29,0,0,1,.14.05l.06,0a.87.87,0,0,1,.2.12l.05,0c.05,0,.09,0,.11.09s.06.11.12.11h0s0,0,0,0l0,.06s0,0,0,.07,0,0,0,0a.05.05,0,0,1,0,0v.06s0,.07,0,.11v0s0,.09,0,.12a.15.15,0,0,0,.12.09s.05,0,.08,0h0a0,0,0,0,1,0,0h-.08a0,0,0,0,0,0,0c0,.06.07.11.1.13a.2.2,0,0,0,.1,0l.05,0,.07.06h0a.22.22,0,0,1,.1.11l0,.06,0,.06a.13.13,0,0,0,.08.1h0v0a0,0,0,0,1,0,0h.26a.16.16,0,0,1,.1,0l.06,0h.13l0,0,0,0s0,0,0,0a.11.11,0,0,1,0,.07s0,.08.07.08h.05a.07.07,0,0,1,.06,0l0,0,0,0a.08.08,0,0,0,.08,0,0,0,0,0,0,0-.05.23.23,0,0,0,0-.1l0-.05,0-.07,0,0a.12.12,0,0,0,.08,0l0,0,.05,0a.07.07,0,0,0,.08,0,.07.07,0,0,0,0-.07.19.19,0,0,0-.09,0s0,0,0,0l-.06-.06,0,0h0A.3.3,0,0,0,309,55l0,0s0,0-.05,0l0-.07,0,0a.54.54,0,0,0-.11-.13l0,0-.07-.07,0,0s0,0,0-.07v-.12h0l0,0a.37.37,0,0,0,.1.07h0l.07,0,.06,0,0,0s.08,0,.08-.1,0,0,0,0l.06,0a.47.47,0,0,1,.1-.1l.06,0h.18l.06,0a.34.34,0,0,0,.17,0s0,0,0,0,0,.14.09.15h.12s0,0,0,0a.23.23,0,0,1-.05.1h-.06a.1.1,0,0,0-.08,0,.06.06,0,0,0,0,.06.4.4,0,0,1,0,.13l0,0a0,0,0,0,0,0,0h0a.13.13,0,0,0-.1.06,0,0,0,0,0,0,0,.14.14,0,0,0,.08,0h0l.1,0h0s.06,0,.06-.06,0,0,0,0h0c0-.05-.05-.09,0-.11l.07,0h0s0,.05,0,.08a.27.27,0,0,0,0,.09l0,.06a.08.08,0,0,1,0,0,.06.06,0,0,1,0,0l0,0h0v0h0s0,0,0,0l0,0h-.14c-.05,0-.05,0-.05.07s0,.11,0,.13h.1s0,0,0,0l0-.06s0,0,0,0,0,0,0,0,0,0,0,0l0,0s0,0,.06,0,0,0,0,0h0a.28.28,0,0,0,.11,0h0v.07l-.07,0,0,0,0,0a0,0,0,0,0,0,0s0,.1,0,.1h0a.1.1,0,0,0,.06,0h.09a.24.24,0,0,1,0,.09s0,0,0,0l0,0h.09l0,0a.12.12,0,0,0-.05.08h0l0,0,0,0a.19.19,0,0,0-.05.1v0l0,0a.48.48,0,0,0,.15-.12s0,0,0-.07l0,0h.15s0,0,0,0h0l-.05,0c-.08,0-.09.09-.09.09h0s0,0,0,0l.05,0a.11.11,0,0,1,.09,0h0v0h0v0a.32.32,0,0,0-.15.09.17.17,0,0,0,0,.12l0,0s.11,0,.14-.06a.47.47,0,0,1,.05-.1v0s0,0,0-.06,0,0,0-.06,0,0,0,0l0,0h0a.11.11,0,0,0,.07.09h0a.13.13,0,0,0,.09,0h0s0,.06,0,.09a.08.08,0,0,0,0,0,.07.07,0,0,0,0,.07h0l.06,0h.23l0,0,0,0a.11.11,0,0,0,.07-.06l0,0s0,0,0-.08v0a.08.08,0,0,1,0-.07,0,0,0,0,0,0,0h.17a.51.51,0,0,1,.12,0,.55.55,0,0,0,.13.05s0,0,0,0,0,0,0,0a.24.24,0,0,0,.09.07h0a.62.62,0,0,0,.16,0h.18l.06,0h0a.09.09,0,0,0,.07,0l0,0,.06-.07.06-.06a.12.12,0,0,1,.05,0,.05.05,0,0,0,0,0h0l.07,0,.06,0,.09,0h.05s.07,0,.09-.06l0,0s0,0,0,0a0,0,0,0,0,0,0h0l.08,0a.07.07,0,0,1,0,.06h0a.13.13,0,0,0-.1.06h0s0,0,0,.07v0h0v0s0,0,0,.06,0,0,0,.06a0,0,0,0,0,0,0,0,0,0,0,0,0,.06s0,0,0,0a.13.13,0,0,0,.05.06.25.25,0,0,1,0,.07s0,0,0,.06,0,.11.05.12l0,0h0a.18.18,0,0,0-.1.09.16.16,0,0,0,0,.09.45.45,0,0,1,0,.11.09.09,0,0,0,0,.05l0,.07a.58.58,0,0,0-.06.15s0,0,0,.06,0,.05,0,.07,0,.07,0,.1,0,.09,0,.1,0,0,0,0a.25.25,0,0,1,0,.12s0,0,0,.06a.15.15,0,0,1,0,.09.28.28,0,0,1-.14.09l0,0h-.32s0,0,0,0l-.05,0h-.07a.06.06,0,0,0-.06,0h0a.16.16,0,0,1-.1,0,.76.76,0,0,1-.09-.09h0v0h-.11a.16.16,0,0,1-.09,0h0a.08.08,0,0,0-.09,0h-.07l-.05,0h-.06a.18.18,0,0,0-.11,0,.23.23,0,0,0-.07.08v0h-.05l-.08,0-.07.06-.06,0a.12.12,0,0,1-.08,0h0l-.06,0a.09.09,0,0,0-.05,0h-.15a.25.25,0,0,1-.17,0l-.06,0-.07,0-.08,0h-.15l-.14,0H310l-.08,0-.07,0a.49.49,0,0,0-.15,0h0s0,0,0,0a.2.2,0,0,0-.07-.13.31.31,0,0,0-.13,0h-.19l0,0s0-.05-.08-.05H309a.16.16,0,0,1-.1,0h0a.19.19,0,0,0,0-.13s0,0-.08,0-.12,0-.15,0l0,0s0-.06-.12,0h-.15l-.06,0-.06,0h0l-.12,0a.11.11,0,0,0-.08.06l0,0h0c-.05,0-.11,0-.13.09l0,0a.12.12,0,0,0,0,.12.53.53,0,0,0,0,.12.58.58,0,0,1,0,.1.43.43,0,0,0,0,0,.09.09,0,0,1,0,.05.75.75,0,0,1-.1.2.23.23,0,0,1-.17.09h-.12l-.1,0a1.38,1.38,0,0,0-.18-.13h0a2.1,2.1,0,0,0-.64-.19h-.08a.2.2,0,0,1-.17-.09.39.39,0,0,1-.06-.15.38.38,0,0,0-.08-.17.34.34,0,0,0-.18-.07l-.07,0a.1.1,0,0,1-.07,0,.27.27,0,0,0-.2-.06h-.29a.43.43,0,0,1-.24-.05l-.12-.06a.19.19,0,0,0-.11-.06h-.05c-.11,0-.16,0-.16-.09l0,0,0,0s0,0-.1,0h-.24s-.07-.06-.07-.1a.2.2,0,0,1,.06-.12l.06-.06.1-.12.05-.06a.29.29,0,0,0,0-.14s0,0,0,0,0,0,0-.09v0a.56.56,0,0,0-.1-.14l0,0s0,0,0-.06a.22.22,0,0,1,.08-.1h0s0,0,.06-.09l0-.06s0-.07,0-.09h0l-.08,0a.35.35,0,0,1-.14.06h0s0-.05,0-.07a.17.17,0,0,0,0-.05.21.21,0,0,0-.15,0h-.11l-.13.07-.1,0-.31.06h0a.06.06,0,0,0,0,0,.35.35,0,0,0-.12-.05s-.05,0-.06,0,0,0,0,0h0a.18.18,0,0,1-.1,0s0,0,0,0l-.05,0v0s0,0,0,0h0l-.05,0-.05.06s0,0-.05,0h0l-.13,0h-.05s0,0-.05,0l0,.06,0,0,0,0,0-.05s0,0,0,0,0,0-.11,0H302l-.06,0-.1,0h-.11a.14.14,0,0,0-.11,0l-.08,0-.07,0h-.16l-.17,0-.21,0h-.05a1.5,1.5,0,0,0-.22.11s0,0,0,.07h-.22s0,0,0,0a.14.14,0,0,1-.08,0l-.06,0,0,0a.11.11,0,0,1,0,0h0a.27.27,0,0,1-.12,0h0a1,1,0,0,1-.22,0l-.12,0a.07.07,0,0,0,0-.07s0,0,0,0a.14.14,0,0,0-.09,0h-.14a.21.21,0,0,0-.12,0l-.05,0H299s-.06,0-.08,0l-.11-.14v0a.1.1,0,0,0-.11-.06c-.11,0-.16,0-.17.06h0a.13.13,0,0,1,0,.09.8.8,0,0,0-.08.16l0,0a.37.37,0,0,1-.07.14.56.56,0,0,0-.05.08s-.07.1-.1.11l-.14.11L298,57l-.1,0-.11,0-.22.12-.2.16h0s-.09.08-.08.14a.29.29,0,0,1-.08.2l-.05,0a.19.19,0,0,0-.09.12.48.48,0,0,0,0,.12.08.08,0,0,1,0,.07.62.62,0,0,0,0,.21l0,0s0,0,0,0a.46.46,0,0,1-.1.14l-.12.15,0,.07a.26.26,0,0,1,0,.09h0a.46.46,0,0,1-.12.1h0c-.09.06-.14.08-.17.13a.38.38,0,0,1-.12.08l-.05,0a.3.3,0,0,1-.13.06l-.23.06-.11,0h0s-.05.07-.07.07a.12.12,0,0,0-.1.1s0,.07,0,.11l0,.09-.06.16-.1,0a.6.6,0,0,0-.17.07l0,0a.2.2,0,0,0-.06.11s0,.07,0,.11l0,.09,0,.09a.16.16,0,0,0,0,.09s0,0,0,0,0,0,0,.06l-.05.06-.06.06a.73.73,0,0,1-.1.13v0l-.08,0s-.08,0-.08,0a.23.23,0,0,1,0,.12.16.16,0,0,1,0,.06.19.19,0,0,0-.05.09v0a.51.51,0,0,0-.07.15s0,.05,0,.08,0,.06,0,.06-.15.07-.17.14l0,0a.88.88,0,0,0,0,.15l0,0a.27.27,0,0,0,0,.11.19.19,0,0,1,0,.08c0,.06,0,.11,0,.12h.05s.05,0,.05-.05a.08.08,0,0,0,0,0l0,0,.06,0,0,0,0,0,0,.06a.24.24,0,0,1,0,.1.76.76,0,0,1,0,.11h0a.1.1,0,0,0,0,.09v0s0,0,0,.06a.64.64,0,0,1,.08.14s0,0,0,0a.58.58,0,0,1,0,.18c0,.09,0,.16,0,.22s0,0,0,.06a.14.14,0,0,1,0,.12l-.06.09a.34.34,0,0,0-.06.12.64.64,0,0,0-.05.17s0,0,0,.06a.27.27,0,0,1,0,.14.59.59,0,0,1-.14.22l0,0a.37.37,0,0,0-.1.14s0,.07,0,.12l.07.08h0l0,0a.14.14,0,0,1,0,.17l0,.05s0,0,0,0a.07.07,0,0,0,0,.11l0,0s.05.05.05.09a.2.2,0,0,1,0,.08s0,0,0,.08,0,.13.07.14,0,0,.05,0h0l0,0,.05.06a.13.13,0,0,0,.05.06l0,0s0,0,.1,0l.07,0,.05,0,0,0a.1.1,0,0,1,0,.09h0s0,.09.05.11l.08.07h0a.23.23,0,0,0,.1,0s0,0,0,.06h0a.12.12,0,0,0,0,.1l.06,0a.08.08,0,0,0,0,0s0,0,0,0,0,0,.08,0h.14a.09.09,0,0,1,0,.08v0c0,.05,0,.09,0,.12l.1.1v.08a.47.47,0,0,0,0,.18v0s0,.05,0,.08l.07,0,.05,0s0,0,.05,0l.05,0s0,0,0,.06a.21.21,0,0,0,0,.06l0,.06.05.06a.1.1,0,0,0,.07,0,.34.34,0,0,1,.12,0,.39.39,0,0,0,.08.1l0,0s0,0,0,0,0,.07.09.07.06.07.08.1l0,0a.07.07,0,0,0,.08,0h.05c.06,0,.1,0,.17.13a1.1,1.1,0,0,0,.21.14l.14.09,0,0a.64.64,0,0,0,.22.22l.05,0a.17.17,0,0,0,.13,0h.06l.36-.14.06,0,.13-.07a.73.73,0,0,1,.19-.07h.36l.29,0H299l.13,0,.19,0h0l.11,0a.64.64,0,0,0,.19.07.28.28,0,0,0,.09-.07l.09-.08h0a.53.53,0,0,1,.16,0l.05,0h0a.08.08,0,0,0,.07,0,.57.57,0,0,1,.13-.1l0,0a1,1,0,0,1,.18-.08l.12,0h0s0,0,0,0h.05l.09-.07a.19.19,0,0,1,.09,0l.06,0a1.33,1.33,0,0,1,.34-.09h0l.17,0H302s.06,0,.08,0l.08.06a.55.55,0,0,1,.19.18l.06.1a.57.57,0,0,1,.07.16s0,.19.09.23,0,0,0,0a.1.1,0,0,0,.1,0h.14a.08.08,0,0,0,.06,0s0-.07.07-.08v0a.09.09,0,0,0,.07,0h0a.17.17,0,0,0,.08,0,.49.49,0,0,1,.17,0h.06l.06,0s.07,0,.08,0a.12.12,0,0,0,.1,0h.06s0,0,0,.06a.18.18,0,0,1,0,.06.08.08,0,0,0,.06.09l.06,0,.07,0h0s0,0,0,0,0,0,0,0h0a0,0,0,0,1,0,0,.27.27,0,0,0,0,.17l0,0s0,0,0,.08,0,.07,0,.11a1.24,1.24,0,0,0,0,.18.31.31,0,0,1,0,.18s0,0,0,.06a.16.16,0,0,0-.05.08l0,0s-.05,0,0,.09.05,0,.07.05h0a.45.45,0,0,1,0,.16v0s0,0,0,0h0c-.05,0-.06,0-.07.08a.22.22,0,0,0,0,.08v.06a.19.19,0,0,1-.07.15l-.07,0h0s-.05,0-.06,0,0,0,0,.06a1.63,1.63,0,0,0,.09.19l0,0a.51.51,0,0,1,0,.1.6.6,0,0,0,.1.23.51.51,0,0,0,.12.13l.06.08.1.1a.38.38,0,0,1,.09.09l.09.08a.8.8,0,0,1,.13.13l.11.17.12.16s0,0,0,0a.37.37,0,0,1,.08.15s0,.09.07.11,0,0,0,0,.05,0,0,.08a.05.05,0,0,1,0,0l0,0a.07.07,0,0,0,0,.06.44.44,0,0,0,.09.11.29.29,0,0,1,.09.11v0a.17.17,0,0,0,0,.11.68.68,0,0,1,.08.19.32.32,0,0,1,0,.09c0,.06.08.14.12.19a.29.29,0,0,1,.07.16v0s0,.12,0,.13,0,0,0,0-.08,0-.09,0,0,0,0,0a.06.06,0,0,0,0,.08,1.36,1.36,0,0,1,0,.17s0,0,0,.07a.16.16,0,0,0,.05.08l0,.07a.78.78,0,0,1,0,.07.24.24,0,0,1,0,.07l0,0a.34.34,0,0,1,0,.08l0,.07a.25.25,0,0,1,0,.09v.17a.58.58,0,0,1-.06.17l0,.07s-.07.14-.1.14-.13,0-.14.07a.08.08,0,0,0,0,0,.16.16,0,0,1-.05.12l0,0s0,0-.06.09a.45.45,0,0,0,0,.18s0,0,0,.07V76a.31.31,0,0,1,0,.14s0,0,0,.06l0,.09a.84.84,0,0,0,0,.12.43.43,0,0,0-.05.12.39.39,0,0,0,0,.06s0,0,0,.08,0,.09,0,.12v0s0,.06,0,.1a.37.37,0,0,0,0,.15,1.1,1.1,0,0,1,0,.16v0h0a.2.2,0,0,0,0,.12.13.13,0,0,1,0,.06.31.31,0,0,0,.05.12,2.56,2.56,0,0,1,.16.22l0,0a.27.27,0,0,1,.07.12h0a.84.84,0,0,0,.07.19l.06.1a.18.18,0,0,1,.05.07.78.78,0,0,1,.05.14v0a.45.45,0,0,0,.07.19l.05.06.08.11.08.15c.05.09.11.18.12.21l0,.06s.06.08,0,.1l0,0a.09.09,0,0,0,0,.11v.06a.46.46,0,0,1,0,.19.55.55,0,0,0,0,.32l0,0,.05.06a.15.15,0,0,1,0,.08.09.09,0,0,0,0,.05v.08a.27.27,0,0,0,0,.15.92.92,0,0,1,0,.15.14.14,0,0,0,0,.09s0,0,.06,0h0a.25.25,0,0,1,0,.07s0,.06,0,.09a.21.21,0,0,0,0,.11l0,0s0,0,0,0a.26.26,0,0,0,.08.12,1.5,1.5,0,0,1,.11.17.09.09,0,0,0,.06.07l.06.06a2.56,2.56,0,0,1,.28.42l.05.14v.05s0,0,0,0a.48.48,0,0,0,.08.18,2.14,2.14,0,0,0,.13.19c0,.06.07.11.08.13v0a1.22,1.22,0,0,1,.08.17.31.31,0,0,0,0,.08,1,1,0,0,1,0,.11.27.27,0,0,1-.05.13s0,0-.06,0l-.06,0,0,0s0,0,0,0,0,0,0,.06l.07,0s0,0,0,0,0,.05.05.06l0,0,0,0a0,0,0,0,1,0,.05s0,0,0,0S307.11,83.7,307.12,83.74Zm37.49-24.95h0a.41.41,0,0,1,0,.09A.07.07,0,0,1,344.61,58.79Zm-22.22-15.1a.21.21,0,0,1,.12,0h0l.13.05a.26.26,0,0,1,.13.06s.06.05.09.08a.14.14,0,0,1,0,.09v0h0s0,0,0,.07l0,0a.12.12,0,0,0,.07,0h-.11a.2.2,0,0,1-.05-.09c0-.11-.07-.18-.14-.21l-.05,0s0,0-.08,0l0,0-.07,0,0,0s0,0,0,0Z"/></g></g></g></g></svg>