<?xml version="1.0" encoding="utf-8"?>
<!-- Generator: Adobe Illustrator 23.0.5, SVG Export Plug-In . SVG Version: 6.00 Build 0)  -->
<svg version="1.1" xmlns="http://www.w3.org/2000/svg" xmlns:xlink="http://www.w3.org/1999/xlink" x="0px" y="0px"
	 viewBox="0 0 366 487" style="enable-background:new 0 0 366 487;" xml:space="preserve">
<style type="text/css">
	.st0{fill:#FF6700;}
	.st1{fill:#FC6600;}
	.st2{fill:#F3D515;}
	.st3{fill:#FFFFFF;}
	.st4{fill:#211915;}
</style>
<g id="patitas">
	<path class="st0" d="M31.2,416.5l-17,51l17-12v25l31-51C62.2,429.5,64.2,400.5,31.2,416.5z"/>
	<path class="st1" d="M343.7,416.6l17,51l-17-12v25l-31-51C312.7,429.6,310.7,400.6,343.7,416.6z"/>
</g>
<g id="cresta">
</g>
<g id="animadas" focusable="false">
	<g id="hamburgueza">
		<path class="st2" d="M261,27.6L26.1,371c-15,21.9-9.4,51.8,12.5,66.7s51.8,9.4,66.7-12.5L340.2,81.8c15-21.9,9.4-51.8-12.5-66.7
			C305.9,0.1,276,5.7,261,27.6L261,27.6z"/>
		<path class="st2" d="M26.3,81.6l234.4,343.7c14.9,21.9,44.8,27.5,66.7,12.6c21.9-14.9,27.5-44.8,12.6-66.7L105.6,27.5
			C90.7,5.6,60.8,0,38.9,14.9S11.4,59.7,26.3,81.6L26.3,81.6z"/>
	</g>
	<path class="st0" d="M208.8,209.1c0,9.5-13.1,4.9-29.3,4.9s-29.3,4.5-29.3-4.9s13.1-23.6,29.3-23.6S208.8,199.6,208.8,209.1z"/>
	<path class="st2" d="M108.7,284.5c-28.4,29.3-62.8,42.1-76.9,28.5c-14.1-13.6-2.5-48.5,25.8-77.8s76.9-28.5,76.9-28.5
		C139.2,214.3,137,255.2,108.7,284.5z"/>
	<path class="st2" d="M262.2,284.2c27.8,29.9,61.9,43.3,76.3,30c14.4-13.3,3.5-48.4-24.3-78.3s-76.3-30-76.3-30
		C233.1,213.3,234.4,254.3,262.2,284.2z"/>
	<path class="st1" d="M208.8,224.5c0-9.5-13.1-4.9-29.3-4.9s-29.3-4.5-29.3,4.9s13.1,23.6,29.3,23.6S208.8,233.9,208.8,224.5z"/>
	<ellipse class="st3" cx="128.6" cy="148.4" rx="29.5" ry="37.1"/>
	<ellipse class="st3" cx="245.2" cy="148.4" rx="29.5" ry="37.1"/>
	<circle class="st4" cx="245.2" cy="148.4" r="18.6"/>
	<circle class="st4" cx="128.6" cy="148.4" r="18.6"/>
</g>
</svg>
