<?xml version="1.0" encoding="utf-8"?>
<!-- Generator: Adobe Illustrator 23.0.5, SVG Export Plug-In . SVG Version: 6.00 Build 0)  -->
<svg version="1.1" xmlns="http://www.w3.org/2000/svg" xmlns:xlink="http://www.w3.org/1999/xlink" x="0px" y="0px"
	 viewBox="0 0 580.7 525" style="enable-background:new 0 0 580.7 525;" xml:space="preserve">
<style type="text/css">
	.st0{fill:#FF6700;}
	.st1{fill:#FC6600;}
	.st2{fill:#F3D515;}
	.st3{fill:#FFFFFF;}
	.st4{fill:#211915;}
</style>
<g id="patitas">
	<path class="st0" d="M185,461l-17,51l17-12v25l31-51C216,474,218,445,185,461z"/>
	<path class="st1" d="M401.7,461l17,51l-17-12v25l-31-51C370.7,474,368.7,445,401.7,461z"/>
</g>
<g id="cresta">
	<path class="st2" d="M274.4,84c0,23.7-12.9,68-35,68s-45-44.3-45-68s17.9-43,40-43S274.4,60.2,274.4,84z"/>
	<path class="st2" d="M325.2,65c0,23.7-17.9,76.4-40,76.4c-22.1,0-40-52.6-40-76.4s17.9-43,40-43C307.3,22,325.2,41.3,325.2,65z"/>
	<path class="st2" d="M365.2,48c0,23.7-17.9,76.4-40,76.4c-22.1,0-40-52.6-40-76.4s17.9-43,40-43C347.3,5,365.2,24.3,365.2,48z"/>
</g>
<g id="animadas" focusable="false">
	<g id="hamburgueza">
		<path class="st2" d="M419.4,118.1H161.8c-16.4,0-29.7,21.5-29.7,48s13.3,48,29.7,48h257.6c16.4,0,29.7-21.5,29.7-48
			S435.8,118.1,419.4,118.1L419.4,118.1z"/>
		<path class="st2" d="M502.1,247.5h-416c-26.5,0-48,21.5-48,48s21.5,48,48,48h416c26.5,0,48-21.5,48-48S528.6,247.5,502.1,247.5
			L502.1,247.5z"/>
		<path class="st2" d="M443.2,376.9H145c-19,0-34.4,21.5-34.4,48s15.4,48,34.4,48h298.2c19,0,34.4-21.5,34.4-48
			S462.2,376.9,443.2,376.9z"/>
	</g>
	<path class="st0" d="M314.6,170.3c0,9.5-13.1,4.9-29.3,4.9c-16.2,0-29.3,4.5-29.3-4.9s13.1-23.6,29.3-23.6
		C301.4,146.7,314.6,160.8,314.6,170.3z"/>
	<path class="st2" d="M82.9,325.3C54.5,354.6,20.1,367.4,6,353.8c-14.1-13.6-2.5-48.5,25.8-77.8s76.9-28.5,76.9-28.5
		C113.3,255,111.2,296,82.9,325.3z"/>
	<path class="st2" d="M498,331.2c27.8,29.9,61.9,43.3,76.3,30c14.4-13.3,3.5-48.4-24.3-78.3c-27.8-29.9-76.3-30-76.3-30
		C469,260.4,470.3,301.3,498,331.2z"/>
	<path class="st1" d="M314.6,185.7c0-9.5-13.1-4.9-29.3-4.9c-16.2,0-29.3-4.5-29.3,4.9s13.1,23.6,29.3,23.6
		C301.4,209.3,314.6,195.1,314.6,185.7z"/>
	<ellipse class="st3" cx="210.6" cy="166.1" rx="29.5" ry="37.1"/>
	<ellipse class="st3" cx="365.2" cy="166.1" rx="29.5" ry="37.1"/>
	<circle class="st4" cx="365.2" cy="166.1" r="18.6"/>
	<circle class="st4" cx="210.6" cy="166.1" r="18.6"/>
</g>
</svg>
